<?xml version="1.0" standalone="no"?>
<!DOCTYPE svg PUBLIC "-//W3C//DTD SVG 20010904//EN"
 "http://www.w3.org/TR/2001/REC-SVG-20010904/DTD/svg10.dtd">
<svg version="1.0" xmlns="http://www.w3.org/2000/svg"
 width="769.000000pt" height="1280.000000pt" viewBox="0 0 769.000000 1280.000000"
 preserveAspectRatio="xMidYMid meet">
<metadata>
Created by potrace 1.15, written by Peter Selinger 2001-2017
</metadata>
<g transform="translate(0.000000,1280.000000) scale(0.100000,-0.100000)"
fill="#000000" stroke="none">
<path d="M5560 12784 c-90 -31 -248 -114 -327 -172 -99 -74 -256 -224 -343
-328 -36 -42 -79 -93 -96 -113 l-32 -35 -59 54 c-34 31 -101 77 -154 104 -52
27 -173 103 -269 170 l-175 121 -70 0 c-63 0 -77 -4 -128 -34 -68 -42 -233
-186 -378 -330 -87 -88 -124 -135 -214 -276 -130 -203 -183 -304 -218 -416
-57 -179 -68 -239 -74 -399 -6 -173 9 -307 53 -452 13 -45 24 -87 24 -95 0
-31 -45 -5 -200 119 -91 72 -203 156 -250 186 -47 30 -130 85 -185 122 -110
74 -188 116 -339 180 -55 23 -185 81 -290 130 -470 216 -668 268 -984 258
-116 -3 -143 -7 -178 -26 -81 -42 -122 -121 -109 -211 6 -47 171 -606 224
-763 80 -237 169 -402 299 -557 98 -116 363 -390 428 -442 67 -53 142 -91 269
-134 44 -14 88 -35 98 -44 18 -18 13 -20 -125 -75 -175 -70 -222 -97 -318
-181 -41 -35 -127 -107 -190 -158 -157 -128 -231 -211 -322 -363 -106 -179
-106 -178 -83 -220 22 -40 28 -33 -75 -91 -113 -63 -152 -93 -282 -220 -93
-90 -162 -145 -255 -207 -144 -94 -173 -121 -203 -189 -65 -148 -7 -318 117
-344 21 -4 187 -8 368 -8 300 1 342 3 460 24 130 23 368 90 387 109 7 7 7 16
0 28 -8 14 -4 20 22 33 18 9 39 33 51 56 l19 40 12 -105 c19 -162 16 -251 -12
-390 -31 -150 -43 -383 -24 -473 16 -77 61 -142 145 -205 136 -102 298 -142
435 -108 99 25 216 88 310 167 111 93 128 104 302 178 153 66 193 91 144 91
-41 0 -381 -115 -419 -142 -17 -12 -63 -49 -102 -81 -145 -121 -293 -165 -399
-119 -60 27 -62 52 -3 80 82 39 104 78 143 264 50 238 138 467 233 607 106
156 292 312 526 441 l60 33 -46 -49 c-25 -27 -67 -77 -93 -112 -26 -34 -96
-105 -156 -157 -113 -99 -161 -161 -209 -268 -16 -35 -57 -111 -92 -168 -80
-134 -105 -188 -135 -301 -14 -51 -41 -122 -61 -158 -19 -36 -39 -78 -44 -93
-17 -60 31 -118 85 -101 42 13 283 189 368 269 47 44 102 89 120 99 l34 19 42
-28 c35 -23 49 -26 82 -21 64 10 201 63 282 109 41 24 80 41 86 39 18 -6 84
34 156 95 121 103 126 107 136 97 7 -7 -9 -50 -45 -123 -64 -128 -84 -195 -92
-301 -7 -102 11 -169 93 -332 36 -73 86 -190 110 -260 48 -139 106 -275 159
-367 109 -194 206 -286 425 -404 117 -63 184 -80 284 -75 91 5 144 25 221 83
134 101 194 217 293 565 38 135 88 290 110 345 60 150 129 295 142 295 6 0 29
-17 53 -39 38 -35 48 -39 107 -43 46 -3 87 -14 140 -38 148 -68 227 -40 330
115 19 28 58 77 88 110 62 68 76 96 99 198 20 90 23 313 4 417 -15 88 -55 254
-77 323 -25 76 -15 101 85 210 100 109 133 167 137 241 1 28 3 55 3 59 1 4 34
5 74 1 48 -4 134 1 257 15 306 35 741 100 805 120 33 11 78 23 99 28 25 5 47
19 60 36 19 26 21 43 23 195 1 95 9 215 19 277 26 175 24 178 -301 328 -149
69 -213 91 -239 81 -22 -9 -20 -50 3 -67 19 -12 17 -14 -23 -25 -26 -7 -69
-33 -113 -70 -39 -33 -132 -95 -208 -138 -75 -44 -144 -89 -152 -101 -26 -39
14 -77 92 -86 17 -1 -18 -7 -77 -11 -121 -9 -218 -1 -218 18 0 18 68 64 200
136 184 100 291 187 377 303 88 120 223 367 290 531 25 61 74 167 109 236 77
153 103 243 111 380 5 90 3 107 -10 119 -34 28 -53 0 -72 -112 l-6 -38 -20 25
c-31 39 -57 33 -115 -28 -68 -70 -88 -111 -119 -240 -28 -122 -42 -152 -94
-210 -21 -22 -43 -50 -50 -61 -10 -17 -11 -15 -5 15 10 53 59 220 77 263 32
74 93 154 218 282 150 155 159 167 159 221 0 36 -7 49 -46 93 -29 32 -69 62
-112 83 -64 32 -72 33 -182 33 -91 -1 -130 -6 -190 -24 -281 -87 -506 -274
-727 -606 -33 -49 -120 -191 -193 -315 -154 -260 -184 -303 -297 -423 -72 -78
-102 -127 -75 -127 16 0 105 62 152 106 49 46 86 98 180 259 71 122 263 413
368 559 143 200 303 346 472 431 112 56 165 69 275 70 90 0 107 -3 163 -29 78
-36 126 -87 117 -124 -6 -23 -61 -102 -71 -102 -2 0 4 16 13 35 35 73 -22 161
-124 191 -105 31 -220 -11 -404 -147 -65 -48 -154 -107 -197 -132 -57 -33 -93
-63 -126 -104 -65 -81 -133 -218 -152 -305 -20 -90 -34 -113 -153 -258 -52
-63 -131 -168 -174 -233 -89 -132 -125 -166 -318 -299 -149 -103 -199 -153
-199 -202 0 -69 70 -114 158 -101 84 12 226 64 338 121 163 85 402 197 377
177 -13 -10 -78 -49 -145 -87 -68 -38 -161 -93 -208 -123 -47 -30 -112 -67
-145 -83 -76 -36 -271 -93 -394 -114 -103 -17 -271 -22 -271 -7 0 20 33 42 54
37 12 -4 48 -9 82 -12 58 -6 61 -6 87 25 48 58 61 147 26 182 -18 18 -30 21
-94 17 l-73 -3 51 27 c116 64 147 108 192 278 54 207 70 437 39 588 -8 42 -35
133 -58 202 -218 628 -278 748 -528 1058 -59 74 -108 140 -108 147 0 6 11 17
25 23 33 15 37 27 74 215 61 305 138 505 250 655 85 111 329 347 432 415 154
102 254 136 304 103 33 -22 32 -31 -6 -34 -83 -6 -239 -119 -422 -306 -155
-157 -315 -357 -360 -450 -16 -32 -32 -91 -40 -148 -11 -71 -26 -120 -58 -189
-23 -51 -46 -111 -50 -133 -10 -58 14 -135 75 -240 29 -50 78 -140 109 -201
30 -60 84 -158 120 -217 36 -59 72 -127 81 -150 98 -269 154 -435 182 -547 36
-143 50 -175 85 -184 41 -11 73 37 117 175 81 253 106 425 122 844 6 155 15
312 20 350 10 79 7 -53 -11 -471 -15 -380 -41 -534 -126 -757 -24 -65 -60
-168 -80 -230 -19 -62 -49 -139 -65 -171 -33 -63 -32 -101 3 -110 31 -8 60 26
107 124 47 97 189 490 198 546 6 37 8 38 43 38 l37 0 -98 -220 c-58 -129 -97
-230 -96 -245 4 -32 41 -39 70 -13 24 21 92 154 144 280 20 48 71 165 114 258
143 310 149 347 150 840 0 311 -11 527 -40 745 -35 267 -68 400 -99 400 -19 0
-20 -35 -6 -173 19 -189 20 -184 -3 -164 -24 22 -35 21 -56 -2 -27 -29 -34
-120 -46 -556 -9 -365 -26 -608 -50 -740 -7 -39 -8 -24 -5 65 3 63 9 241 15
395 16 447 30 649 60 870 13 91 13 440 1 590 -9 120 -27 164 -80 193 -45 26
-79 27 -141 6z m-1490 -264 c45 -23 52 -33 16 -24 -29 7 -43 -6 -164 -146 -49
-58 -134 -152 -188 -210 -57 -62 -131 -157 -179 -230 -45 -69 -123 -174 -173
-235 -98 -118 -166 -237 -182 -320 -6 -27 -13 -133 -16 -235 -7 -218 6 -301
82 -522 88 -254 127 -316 216 -339 43 -12 59 -10 224 30 167 41 182 43 270 37
65 -5 100 -4 116 5 49 26 50 51 1 149 l-37 75 1 130 c1 72 6 150 11 175 9 41
10 37 11 -51 1 -140 24 -248 96 -468 107 -325 130 -410 117 -423 -14 -14 -16
-204 -2 -263 5 -22 8 -41 6 -42 -2 -2 -15 1 -28 6 -25 9 -26 14 -33 120 -7
113 -18 140 -50 127 -8 -3 -20 -17 -25 -31 -5 -14 -18 -28 -27 -31 -10 -3 -46
-17 -81 -30 -34 -13 -65 -24 -68 -24 -3 0 22 22 55 50 68 57 115 120 148 200
71 172 -36 253 -332 253 -139 1 -170 -9 -311 -93 -194 -116 -257 -176 -286
-271 -10 -35 -12 -37 -45 -32 -41 7 -69 -15 -79 -61 -3 -17 -11 -37 -18 -45
-7 -9 -10 -69 -7 -187 2 -109 -1 -174 -7 -174 -24 0 -33 40 -47 217 -17 217
-25 263 -60 370 -30 90 -64 151 -142 260 -164 230 -263 325 -339 325 l-39 0
29 15 c33 17 107 13 132 -8 9 -7 57 -74 107 -148 74 -110 123 -168 257 -303
162 -165 166 -168 207 -168 33 0 50 7 75 29 31 28 33 33 31 89 -1 56 0 59 19
54 19 -4 20 -2 14 22 -4 15 -34 72 -67 127 -80 132 -96 171 -102 259 -4 41
-16 120 -28 175 -30 141 -38 453 -15 577 20 108 57 222 101 313 37 77 226 381
293 474 44 59 348 367 430 435 51 42 59 43 112 16z m410 -284 c69 -45 153 -99
188 -120 58 -35 62 -40 62 -74 l0 -36 -36 42 c-20 24 -88 77 -152 119 -106 69
-272 197 -272 210 0 2 19 -10 43 -27 23 -18 98 -69 167 -114z m-3708 -762
c-41 -29 -44 -54 -16 -186 15 -73 29 -182 34 -268 8 -152 19 -194 68 -284 44
-80 474 -737 528 -808 65 -84 227 -244 297 -292 31 -22 55 -41 52 -44 -2 -3
-37 15 -77 38 -123 72 -472 443 -603 640 -118 178 -173 304 -298 686 -41 126
-89 267 -106 313 -35 95 -39 145 -15 179 21 30 48 41 109 41 48 1 49 1 27 -15z
m166 6 c236 -26 369 -63 691 -191 212 -85 270 -111 211 -95 -14 4 -74 15 -134
26 -80 14 -126 29 -175 55 -243 129 -375 174 -516 176 -49 0 -101 7 -135 19
-67 22 -64 23 58 10z m3524 -16 c20 -4 51 -1 69 5 18 6 34 9 36 7 2 -2 -2 -30
-9 -62 -19 -83 -36 -82 -118 2 -52 53 -60 65 -40 60 14 -3 42 -9 62 -12z
m-141 -64 c18 -10 18 -13 -15 -43 -43 -41 -62 -104 -76 -257 -21 -241 -8 -476
41 -694 44 -198 92 -304 198 -436 79 -98 110 -158 161 -310 86 -259 217 -437
348 -470 23 -5 55 -8 70 -4 l27 5 -25 -21 c-33 -30 -134 -80 -160 -80 -13 0
-26 13 -39 38 -10 20 -58 89 -105 152 -163 216 -369 695 -512 1188 -69 240
-74 407 -19 715 29 163 35 186 60 210 19 20 21 20 46 7z m-2139 -342 c89 -40
188 -94 208 -115 15 -15 -106 43 -230 111 -81 44 -72 46 22 4z m2703 -410 c53
-116 132 -360 95 -296 -6 9 -32 76 -59 150 -27 73 -59 157 -70 186 -33 84 -13
60 34 -40z m812 -70 c-3 -7 -5 -2 -5 12 0 14 2 19 5 13 2 -7 2 -19 0 -25z
m-3136 -138 c19 -15 21 -19 7 -20 -27 0 -56 -47 -63 -103 -4 -28 -21 -104 -38
-167 -31 -115 -31 -116 -29 -345 3 -292 13 -390 54 -502 48 -134 272 -577 304
-602 57 -45 108 -37 144 21 l20 33 0 -77 c0 -98 -4 -108 -45 -108 -65 0 -251
150 -312 251 -48 81 -77 173 -148 475 -82 349 -89 390 -82 549 7 179 62 494
98 567 26 52 52 60 90 28z m4348 -106 c-18 -20 -43 -40 -54 -45 -11 -6 2 10
28 35 58 55 75 61 26 10z m-3226 -213 c-193 -130 -252 -192 -260 -273 -5 -57
20 -106 72 -136 l40 -24 -79 6 c-101 6 -121 22 -120 99 1 31 9 68 22 92 22 45
102 124 174 173 54 37 213 122 229 122 6 0 -29 -27 -78 -59z m-858 -39 c83
-140 100 -224 115 -557 5 -126 12 -268 14 -315 4 -62 3 -77 -4 -55 -6 17 -15
95 -20 175 -6 80 -15 206 -20 280 -11 162 -57 341 -133 523 -25 58 -1 34 48
-51z m2338 -387 c0 -83 -5 -161 -11 -175 -8 -19 -11 4 -11 105 -1 115 -8 210
-25 333 -4 25 3 12 21 -38 24 -68 26 -88 26 -225z m-2886 143 c-3 -7 -5 -2 -5
12 0 14 2 19 5 13 2 -7 2 -19 0 -25z m1627 -148 c-25 -23 -59 -43 -85 -50
-123 -31 -154 -43 -180 -70 -17 -16 -29 -39 -29 -53 0 -45 117 -274 167 -325
43 -45 81 -102 67 -102 -3 0 -18 8 -32 18 -15 10 -41 24 -58 31 -25 10 -30 18
-31 46 -2 55 -61 145 -200 304 -93 106 -89 114 57 126 108 9 195 32 280 74 41
21 77 38 80 39 3 1 -14 -16 -36 -38z m2753 -122 c-14 -29 -45 -76 -69 -105
-23 -29 -72 -89 -108 -134 -111 -141 -138 -165 -194 -173 -40 -6 -71 -23 -160
-87 -73 -53 -166 -107 -280 -163 -94 -46 -182 -95 -195 -110 -23 -24 -23 -28
-9 -42 14 -14 29 -15 124 -5 142 15 199 30 313 80 51 23 96 39 99 37 8 -9
-176 -91 -243 -109 -70 -19 -291 -58 -488 -87 -147 -21 -252 -26 -243 -11 7
11 99 41 213 70 112 29 161 51 283 130 58 38 146 90 195 117 119 63 248 148
425 279 168 125 283 238 325 318 37 70 46 67 12 -5z m-2337 -44 c0 -46 -26
-101 -51 -107 -17 -5 -19 0 -19 40 0 36 6 51 28 73 36 37 42 36 42 -6z m-2239
-14 c19 -6 46 -22 60 -36 49 -53 101 -66 153 -39 16 9 30 14 32 13 4 -4 64
-245 64 -257 0 -6 -24 4 -52 22 -119 75 -216 91 -318 54 -94 -35 -179 -64
-228 -77 -47 -12 -168 -91 -275 -178 -108 -87 -352 -328 -387 -380 -39 -60
-39 -119 0 -140 31 -16 169 -10 248 12 56 15 61 13 36 -22 -12 -18 -25 -22
-70 -22 -91 0 -242 -20 -338 -45 -50 -13 -94 -22 -97 -19 -22 13 49 146 149
280 68 90 155 177 327 324 145 125 227 179 320 213 80 28 324 83 433 97 88 12
112 23 112 55 0 27 -8 31 -103 44 -61 9 -72 14 -107 50 -22 23 -45 41 -51 41
-5 0 -7 5 -4 10 8 13 50 13 96 0z m1477 -216 c23 -16 67 -92 59 -101 -9 -8
-82 35 -112 67 -25 26 -27 33 -15 40 22 14 43 12 68 -6z m3091 -51 c-38 -55
-167 -193 -181 -193 -15 0 47 76 131 163 42 42 77 77 79 77 2 0 -12 -21 -29
-47z m-3527 -29 c4 -32 22 -117 39 -188 19 -82 31 -157 32 -206 0 -70 -2 -81
-38 -146 -112 -203 -122 -235 -90 -281 15 -21 14 -24 -27 -49 -72 -46 -203
-103 -285 -126 -69 -19 -107 -21 -333 -22 -140 -1 -262 -5 -270 -9 -12 -6 -18
1 -25 25 -9 30 -15 34 -60 41 -27 4 -77 14 -110 22 l-60 14 65 -5 c178 -15
496 -21 520 -10 27 12 38 49 22 69 -8 9 31 12 166 12 151 0 182 3 214 18 20
10 39 25 42 33 6 16 -10 54 -28 67 -16 10 10 25 59 32 123 19 127 25 133 184
2 64 -1 215 -7 334 -8 157 -8 223 0 238 18 34 34 16 41 -47z m974 -41 c31 -14
38 -23 36 -40 -4 -25 -37 -53 -63 -53 -9 0 -30 -7 -45 -15 -37 -19 -84 -20
-84 -1 0 8 -3 21 -6 30 -4 10 -1 16 9 16 8 0 34 18 58 40 24 21 47 39 50 40 4
0 24 -8 45 -17z m3145 -235 c44 -24 62 -54 57 -94 -4 -26 -5 -27 -13 -9 -16
39 -48 77 -89 107 -31 23 -35 29 -16 23 14 -4 41 -16 61 -27z m-4781 -6 c0 -9
11 -43 24 -74 13 -32 22 -58 21 -58 -2 0 -14 16 -26 37 -22 36 -44 127 -27
117 4 -3 8 -13 8 -22z m196 -348 c-6 -17 -16 -17 -85 -4 -29 5 -173 22 -319
36 -338 33 -499 31 -612 -8 -41 -15 -77 -25 -78 -23 -6 6 101 64 156 85 47 18
81 20 325 22 261 3 274 2 331 -19 33 -13 71 -23 84 -23 38 0 72 37 72 77 0 33
1 33 66 -47 39 -48 63 -87 60 -96z m4204 149 c14 -9 71 -58 127 -109 55 -51
115 -100 132 -108 39 -20 90 -20 119 0 l23 16 -3 -64 c-3 -56 -5 -63 -24 -66
-14 -2 -42 13 -78 43 -168 137 -399 236 -586 252 l-75 7 115 21 c146 28 218
30 250 8z m-1798 -92 c50 -5 73 -13 88 -29 21 -22 26 -34 13 -30 -5 1 -23 -1
-40 -5 -46 -9 -45 -45 2 -86 47 -41 90 -62 210 -101 219 -72 275 -121 349
-305 40 -98 82 -150 130 -161 l30 -6 -38 -35 c-46 -43 -54 -38 -102 65 -36 80
-83 147 -172 249 -71 83 -112 107 -161 99 -33 -5 -41 -2 -72 30 -45 47 -106
86 -267 173 -136 73 -162 82 -162 57 0 -25 132 -135 213 -177 140 -73 159 -99
170 -239 4 -50 3 -59 -4 -40 -68 168 -156 265 -314 347 -186 96 -273 111 -393
69 -52 -19 -46 -4 16 35 40 25 55 29 122 29 91 0 133 12 155 46 14 22 22 24
88 23 39 0 102 -3 139 -8z m461 -38 c-7 -2 -19 -2 -25 0 -7 3 -2 5 12 5 14 0
19 -2 13 -5z m130 0 c-7 -2 -19 -2 -25 0 -7 3 -2 5 12 5 14 0 19 -2 13 -5z
m967 -8 l65 -13 -75 6 c-152 14 -492 -6 -552 -31 -71 -31 -96 -86 -73 -163 18
-63 64 -117 127 -153 l49 -28 -66 -13 c-36 -7 -68 -10 -71 -7 -3 2 -16 34 -29
71 -13 36 -44 106 -69 156 -52 102 -57 136 -23 150 34 14 334 37 502 38 93 1
175 -4 215 -13z m-1215 -5 c-27 -5 -70 -8 -95 -8 l-45 1 40 7 c22 4 65 7 95 7
l55 0 -50 -7z m-3531 -75 c-14 -57 59 -91 223 -107 65 -6 121 -14 125 -17 14
-12 -249 8 -386 29 -139 21 -176 32 -176 51 0 18 142 67 198 68 19 1 21 -3 16
-24z m2522 -102 c1 -16 8 -66 17 -113 8 -47 20 -120 26 -162 23 -168 95 -290
270 -461 76 -75 122 -129 148 -175 37 -66 138 -216 247 -367 72 -100 91 -136
166 -327 33 -84 76 -176 95 -204 40 -58 97 -94 150 -94 32 0 36 -2 25 -15 -7
-8 -30 -20 -50 -26 -35 -11 -43 -9 -92 18 -78 44 -134 121 -244 336 -216 426
-314 572 -546 814 -165 173 -187 211 -223 397 -29 142 -52 196 -127 299 -28
37 -49 69 -47 71 2 2 45 10 94 18 50 8 90 16 90 17 0 0 1 -11 1 -26z m2684 -2
c32 -27 34 -31 19 -46 -18 -18 -149 -46 -324 -70 -66 -8 -133 -18 -150 -20
-25 -4 -26 -4 -9 4 12 5 79 19 150 31 243 40 304 65 276 111 -18 28 -2 23 38
-10z m-2887 -78 l24 -47 -31 -21 c-28 -19 -36 -38 -89 -215 -32 -107 -74 -230
-92 -274 -19 -43 -38 -95 -41 -115 -10 -55 -31 -89 -100 -167 -46 -51 -77 -76
-109 -89 -54 -20 -83 -58 -153 -202 -26 -54 -74 -146 -105 -204 -94 -175 -105
-302 -41 -467 82 -209 295 -608 408 -762 86 -119 223 -240 271 -240 9 0 42 -9
74 -20 51 -17 63 -18 107 -6 192 50 282 187 393 590 22 78 55 176 75 220 50
110 66 169 66 249 0 50 5 78 19 101 10 17 22 48 25 69 l7 38 30 -37 c35 -45
36 -61 4 -124 -64 -125 -179 -462 -235 -687 -66 -262 -100 -342 -185 -428 -84
-87 -180 -123 -275 -105 -61 12 -212 86 -295 145 -33 23 -83 67 -110 96 -98
105 -236 354 -304 554 -22 63 -72 175 -110 248 -86 163 -101 226 -82 348 15
99 58 224 119 344 62 125 102 180 237 330 122 135 175 205 218 291 35 70 92
235 131 384 46 174 80 250 111 250 8 0 25 -21 38 -47z m-3021 -13 c-207 -37
-244 -55 -457 -224 -207 -164 -252 -201 -310 -257 -33 -31 -78 -66 -100 -78
-80 -41 -116 -87 -117 -150 -1 -90 71 -148 173 -137 33 3 85 9 118 12 39 4 83
1 131 -10 67 -16 79 -16 159 -1 89 17 233 13 199 -6 -55 -31 -728 -39 -806 -9
-63 24 -82 122 -41 208 23 47 61 79 204 172 50 32 140 105 200 161 131 122
207 180 295 224 117 58 316 112 420 113 19 0 -11 -8 -68 -18z m441 13 c-7 -2
-19 -2 -25 0 -7 3 -2 5 12 5 14 0 19 -2 13 -5z m85 -10 c-10 -2 -26 -2 -35 0
-10 3 -2 5 17 5 19 0 27 -2 18 -5z m49 -9 c-3 -3 -12 -4 -19 -1 -8 3 -5 6 6 6
11 1 17 -2 13 -5z m1476 -34 c8 -37 50 -65 96 -63 20 1 65 13 100 28 47 19 86
28 142 30 43 2 82 6 88 9 5 4 66 -1 135 -9 l125 -17 48 23 c71 34 72 34 25
-10 -62 -57 -122 -74 -241 -70 -185 8 -350 1 -409 -16 -31 -10 -104 -43 -162
-75 -58 -32 -131 -70 -163 -84 -31 -14 -82 -37 -112 -51 -30 -14 -55 -23 -55
-21 0 2 43 29 96 61 178 106 238 195 131 195 -13 0 9 18 59 49 43 27 82 49 85
50 4 1 9 -12 12 -29z m-1346 14 c-3 -3 -12 -4 -19 -1 -8 3 -5 6 6 6 11 1 17
-2 13 -5z m3547 -113 l58 -59 -23 -31 c-17 -24 -22 -43 -21 -88 1 -110 165
-690 233 -824 30 -61 89 -119 119 -119 17 0 20 -7 19 -37 -1 -51 -12 -86 -27
-91 -34 -11 -139 148 -191 288 -119 322 -284 984 -254 1014 14 14 32 3 87 -53z
m483 -88 c-2 -21 -4 -6 -4 32 0 39 2 55 4 38 2 -18 2 -50 0 -70z m-2953 67
c-11 -11 -74 -32 -74 -24 0 5 61 32 75 33 5 1 5 -3 -1 -9z m-955 -24 c-2 -3
-71 -27 -152 -55 -82 -28 -176 -65 -209 -83 -75 -40 -141 -103 -159 -151 -18
-51 -29 -46 -29 12 0 92 30 111 345 220 149 52 218 71 204 57z m1663 -13 c91
-4 162 -2 214 7 71 11 79 11 91 -5 17 -24 9 -33 -22 -27 -14 2 -52 -1 -84 -7
-47 -9 -73 -8 -142 5 -111 21 -193 13 -316 -31 -71 -25 -115 -35 -159 -35 -34
0 -75 -5 -93 -11 -71 -25 -34 0 70 45 140 63 192 77 254 71 28 -3 112 -8 187
-12z m-1167 -25 l160 -13 -115 -11 c-63 -7 -149 -13 -190 -13 -143 -2 -251
-40 -559 -194 -110 -54 -119 -82 -121 -347 -1 -278 -13 -390 -55 -525 -31 -98
-36 -129 -33 -185 6 -112 74 -210 146 -210 64 0 131 83 173 217 13 40 24 71
26 69 2 -2 -8 -53 -22 -114 -30 -127 -59 -176 -129 -217 -58 -34 -140 -44
-183 -21 -108 55 -130 257 -64 576 45 218 46 245 21 435 -19 144 -21 177 -10
223 21 96 104 161 275 215 318 101 396 121 495 126 14 0 97 -5 185 -11z m2815
-258 c18 -80 52 -207 77 -283 24 -77 43 -141 40 -143 -15 -16 -157 493 -157
566 0 30 10 -3 40 -140z m-1425 8 c-91 -180 -200 -320 -350 -446 -157 -132
-169 -139 -110 -62 56 73 96 113 245 251 91 83 114 111 170 206 69 117 89 141
45 51z m-1380 -96 c-6 -4 -43 -34 -82 -66 -175 -140 -323 -340 -415 -561 -20
-49 -38 -86 -38 -82 0 21 56 199 80 252 70 154 268 379 380 433 63 31 94 41
75 24z m2006 -157 c54 -40 68 -64 57 -96 -12 -35 11 -132 47 -198 35 -63 181
-245 243 -303 56 -52 95 -67 124 -49 11 7 22 11 24 9 4 -5 94 -198 94 -204 0
-25 -61 26 -220 184 -141 140 -203 209 -245 275 -62 95 -124 222 -160 325 -31
89 -24 101 36 57z m1209 -812 c0 -25 -33 -98 -49 -108 -6 -3 -1 15 10 41 13
29 20 60 17 86 -3 34 -2 37 9 22 7 -10 13 -28 13 -41z"/>
<path d="M4849 5564 c-9 -26 -6 -61 71 -819 97 -950 114 -1362 98 -2352 -10
-588 -9 -634 6 -658 21 -32 47 -29 57 6 10 39 18 266 30 819 13 673 1 1086
-45 1555 -20 193 -40 440 -45 550 -11 198 -25 301 -100 710 -28 153 -44 215
-56 215 -3 0 -10 -12 -16 -26z"/>
<path d="M4589 5323 c-11 -12 -14 -57 -13 -192 1 -176 11 -282 60 -609 48
-322 51 -362 85 -1127 20 -448 17 -814 -10 -1185 -13 -179 -21 -338 -17 -353
7 -31 31 -36 45 -10 5 10 18 81 30 158 59 397 69 683 47 1365 -21 673 -28 772
-82 1165 -24 176 -46 340 -50 364 -3 24 -11 126 -18 227 -12 180 -21 214 -51
214 -7 0 -19 -7 -26 -17z"/>
</g>
</svg>
