<?xml version="1.0" standalone="no"?>
<!DOCTYPE svg PUBLIC "-//W3C//DTD SVG 20010904//EN"
 "http://www.w3.org/TR/2001/REC-SVG-20010904/DTD/svg10.dtd">
<svg version="1.0" xmlns="http://www.w3.org/2000/svg"
 width="1280.000000pt" height="1280.000000pt" viewBox="0 0 1280.000000 1280.000000"
 preserveAspectRatio="xMidYMid meet">
<metadata>
Created by potrace 1.15, written by Peter Selinger 2001-2017
</metadata>
<g transform="translate(0.000000,1280.000000) scale(0.100000,-0.100000)"
fill="#000000" stroke="none">
<path d="M6210 12785 c-238 -38 -518 -150 -753 -301 -128 -83 -231 -137 -366
-191 -160 -64 -206 -92 -282 -170 -144 -147 -259 -387 -290 -602 -19 -132 -6
-342 35 -561 19 -102 33 -186 32 -187 -1 -1 -28 37 -61 85 -250 361 -385 498
-600 603 -135 66 -266 99 -426 106 -135 6 -178 -2 -280 -53 -85 -42 -277 -103
-441 -139 -250 -55 -383 -104 -559 -207 -52 -31 -112 -61 -134 -68 -30 -10
-80 -52 -203 -174 -155 -153 -165 -165 -216 -266 -150 -293 -205 -441 -251
-675 -40 -200 -33 -180 -101 -325 -75 -162 -87 -216 -81 -370 7 -190 66 -369
177 -538 103 -156 217 -261 490 -451 93 -64 126 -92 105 -88 -311 63 -469 82
-620 74 -257 -14 -513 -120 -703 -292 -75 -69 -115 -131 -158 -246 -43 -117
-120 -263 -214 -409 -41 -63 -96 -157 -122 -209 -44 -89 -62 -139 -153 -432
l-37 -116 4 -204 3 -204 73 -209 c85 -242 147 -372 262 -546 95 -144 138 -226
170 -325 65 -206 209 -355 463 -475 256 -122 472 -136 891 -60 89 17 163 30
166 30 2 0 -48 -35 -112 -78 -168 -114 -272 -198 -368 -298 -201 -209 -304
-441 -317 -719 -6 -136 1 -168 82 -345 44 -97 75 -201 115 -390 39 -185 86
-312 197 -529 l105 -206 146 -148 147 -148 176 -88 c223 -112 301 -140 586
-211 185 -46 263 -71 389 -125 146 -63 165 -68 247 -73 114 -6 235 12 366 54
191 62 358 171 481 314 68 80 220 280 275 363 21 31 40 56 42 54 2 -2 -4 -37
-12 -78 -109 -516 -74 -818 129 -1123 104 -155 193 -228 368 -297 140 -56 213
-94 358 -189 211 -137 311 -181 694 -299 95 -30 105 -31 280 -31 171 0 186 2
278 29 337 102 531 187 698 307 116 83 199 128 301 163 232 78 359 190 478
421 64 123 98 225 116 347 29 195 20 311 -61 738 -6 28 -4 28 27 -15 298 -407
364 -482 502 -574 145 -97 310 -153 519 -177 134 -16 214 0 382 75 68 30 163
64 212 75 49 11 148 34 220 50 165 37 297 86 444 163 63 34 147 76 185 95 57
28 97 61 218 181 l149 147 88 175 c114 227 150 326 211 578 46 192 73 271 165
482 24 56 29 81 32 180 7 215 -66 451 -197 635 -105 148 -208 243 -438 401
-144 99 -176 125 -136 110 47 -18 384 -68 495 -73 318 -15 592 82 824 290 72
65 119 138 160 248 47 126 99 228 201 387 137 214 178 306 278 624 l46 147 -3
213 -3 213 -58 169 c-65 192 -153 379 -257 546 -86 137 -153 270 -203 401 -21
52 -50 115 -66 140 -93 148 -335 303 -568 366 -91 25 -113 27 -298 27 -190 0
-209 -2 -384 -37 -102 -20 -186 -36 -187 -34 -1 1 72 56 163 122 242 175 319
241 395 335 143 176 241 449 241 665 -1 106 -10 143 -68 280 -48 113 -101 283
-135 440 -32 143 -93 313 -158 440 -30 61 -73 146 -95 190 -34 70 -58 99 -195
239 l-157 158 -198 98 c-229 113 -384 168 -582 205 -176 33 -183 35 -335 105
-159 74 -206 84 -356 77 -243 -10 -477 -107 -673 -277 -86 -74 -187 -197 -305
-369 -54 -78 -100 -141 -101 -139 -2 2 3 35 11 73 46 220 58 321 57 500 0 160
-3 190 -25 276 -36 133 -78 229 -148 338 -71 109 -155 201 -225 246 -27 18
-90 47 -140 65 -127 46 -240 105 -385 200 -198 130 -313 180 -625 275 -111 33
-132 36 -275 40 -107 3 -184 0 -250 -10z m520 -44 c333 -105 433 -149 630
-279 126 -83 269 -158 370 -192 103 -36 155 -66 223 -130 106 -99 209 -265
263 -424 73 -214 73 -460 -1 -836 -13 -69 -20 -129 -16 -133 5 -5 48 49 97
120 175 255 270 366 402 466 128 99 324 183 490 212 177 31 284 14 471 -74
123 -57 174 -73 351 -106 184 -35 303 -77 550 -197 l185 -90 157 -156 158
-156 105 -210 c111 -223 156 -346 199 -543 32 -144 79 -291 140 -440 39 -92
48 -127 53 -195 13 -190 -69 -459 -198 -649 -79 -116 -164 -190 -533 -457 -92
-67 -107 -89 -53 -78 17 4 118 23 222 43 437 82 736 32 1020 -172 135 -97 187
-167 259 -348 64 -159 80 -191 164 -327 137 -222 209 -368 274 -560 75 -223
80 -253 76 -460 -4 -176 -6 -189 -35 -270 -17 -47 -47 -137 -67 -200 -47 -148
-113 -284 -213 -440 -111 -173 -156 -258 -202 -383 -22 -59 -56 -131 -76 -161
-111 -167 -395 -333 -645 -377 -93 -16 -317 -13 -440 6 -111 16 -313 53 -342
61 -11 3 -18 0 -18 -9 0 -8 68 -60 152 -117 248 -169 362 -274 468 -430 157
-232 229 -569 161 -760 -10 -30 -35 -89 -54 -131 -51 -107 -82 -204 -123 -386
-50 -216 -89 -326 -198 -548 l-94 -190 -144 -143 c-134 -133 -151 -146 -258
-202 -303 -158 -435 -208 -688 -260 -169 -35 -219 -50 -337 -104 -166 -77
-274 -91 -456 -60 -165 28 -323 88 -435 165 -122 83 -199 169 -406 452 -72 98
-134 175 -139 170 -4 -4 8 -91 27 -193 41 -218 55 -451 35 -591 -25 -168 -104
-355 -213 -500 -92 -123 -192 -193 -350 -248 -122 -43 -196 -81 -293 -150
-169 -121 -303 -187 -553 -271 -254 -85 -273 -89 -452 -89 -87 0 -172 4 -187
8 -424 126 -562 183 -752 310 -134 90 -238 147 -341 186 -140 54 -207 93 -281
162 -145 137 -256 352 -294 572 -29 166 -18 361 35 636 17 83 30 156 30 163 0
25 -18 10 -55 -45 -84 -128 -272 -370 -345 -443 -137 -139 -325 -242 -525
-288 -188 -43 -308 -37 -440 20 -175 76 -253 102 -445 149 -273 68 -372 104
-585 210 l-180 90 -143 142 c-119 119 -149 154 -177 212 -19 39 -57 111 -85
160 -93 166 -151 339 -215 635 -15 69 -37 150 -50 180 -125 298 -115 264 -115
388 0 298 111 552 337 773 100 98 161 146 333 264 124 85 158 115 133 115 -5
0 -78 -13 -164 -29 -241 -45 -336 -54 -492 -48 -159 6 -251 26 -380 82 -184
79 -336 196 -417 319 -23 36 -59 115 -81 177 -44 128 -67 170 -174 330 -104
153 -180 314 -262 554 l-68 200 0 200 c0 198 0 201 32 295 17 52 47 147 67
210 44 144 104 268 210 435 116 181 159 263 210 399 53 138 97 202 193 279
328 264 647 315 1217 197 54 -11 102 -20 107 -20 27 0 -4 28 -118 106 -420
287 -566 465 -660 802 -22 79 -27 119 -27 217 -1 140 17 211 89 354 45 89 70
174 100 341 30 163 87 320 198 545 l104 210 159 157 c132 129 167 158 202 168
24 6 67 26 95 44 159 102 334 170 571 222 197 44 313 80 463 146 l115 50 122
-1 c243 -2 450 -71 634 -213 91 -71 223 -220 337 -379 153 -217 156 -222 165
-212 5 4 -7 91 -26 193 -64 348 -67 492 -14 703 39 154 148 352 254 466 73 77
121 106 264 162 142 56 228 100 378 194 233 147 498 258 704 295 83 15 142 19
285 17 172 -3 185 -4 285 -36z"/>
<path d="M6280 12670 c-106 -11 -305 -49 -370 -72 -79 -27 -580 -298 -580
-314 0 -7 28 -32 63 -55 34 -23 110 -80 169 -126 59 -46 122 -90 140 -98 63
-26 226 -39 319 -25 114 16 118 21 69 82 -22 28 -42 65 -46 83 -11 63 51 202
117 258 60 52 114 67 239 67 175 0 249 -40 314 -171 59 -117 58 -156 -5 -236
-50 -62 -45 -66 91 -83 117 -14 235 1 315 40 33 16 103 65 155 109 52 44 121
94 153 111 31 17 57 35 57 40 0 8 -462 264 -540 299 -44 19 -218 61 -335 80
-91 15 -241 20 -325 11z m424 -45 c196 -40 228 -53 473 -188 126 -69 240 -131
256 -138 15 -7 27 -15 27 -18 0 -3 -24 -18 -53 -34 -29 -15 -93 -61 -143 -103
-49 -42 -107 -86 -129 -99 -83 -50 -244 -68 -381 -44 l-63 11 41 58 c38 54 40
62 36 112 -9 108 -90 228 -186 275 -53 26 -65 28 -182 28 -117 0 -129 -2 -182
-28 -72 -35 -126 -96 -161 -181 -42 -103 -37 -149 25 -228 l28 -36 -50 -11
c-96 -21 -306 -8 -365 22 -11 5 -69 49 -130 97 -60 48 -136 104 -169 124 -32
20 -57 39 -55 41 9 8 498 269 534 285 48 20 147 44 270 65 50 8 101 17 115 19
14 3 90 3 170 1 108 -2 178 -10 274 -30z"/>
<path d="M6488 12374 c-16 -35 0 -58 44 -62 43 -4 68 19 47 44 -12 14 -61 44
-74 44 -3 0 -11 -12 -17 -26z m63 -13 c28 -23 16 -45 -22 -39 -18 2 -25 10
-27 31 -4 33 15 36 49 8z"/>
<path d="M6220 12366 c-30 -33 -21 -52 27 -58 62 -8 86 16 67 66 -10 26 -67
20 -94 -8z m80 -16 c0 -28 -3 -30 -34 -30 -44 0 -56 18 -26 42 35 28 60 24 60
-12z"/>
<path d="M6111 12242 c-15 -29 -14 -74 4 -99 15 -22 92 -53 129 -53 12 0 45
11 74 25 66 31 99 31 163 4 37 -16 63 -20 104 -17 95 8 134 57 104 130 -10 24
-16 28 -33 23 -12 -4 -37 -10 -57 -14 -20 -4 -72 -21 -116 -36 l-81 -29 -113
37 c-161 52 -165 53 -178 29z m155 -37 c119 -39 154 -42 210 -19 36 15 168 53
187 54 4 0 12 -12 17 -26 30 -79 -95 -133 -192 -83 -54 27 -115 28 -167 1
-101 -53 -226 -1 -205 84 8 32 22 31 150 -11z"/>
<path d="M5121 12175 c-84 -24 -150 -64 -221 -135 -83 -84 -123 -152 -178
-303 -88 -244 -95 -296 -68 -549 8 -73 17 -182 21 -243 9 -148 27 -232 87
-410 47 -139 139 -364 161 -392 18 -24 27 -1 21 56 -5 39 -1 75 10 113 9 31
16 84 16 119 0 134 56 284 123 327 22 15 90 75 151 133 162 155 228 207 354
279 62 36 166 98 230 139 192 121 144 112 580 113 340 0 382 -1 413 -17 47
-24 210 -125 234 -145 11 -9 58 -35 105 -58 99 -48 276 -185 395 -307 44 -45
104 -97 133 -115 95 -58 139 -172 148 -380 10 -242 21 -305 46 -258 24 45 198
505 211 559 20 80 43 283 57 504 15 232 5 338 -47 470 -22 55 -47 121 -57 147
-26 70 -105 186 -165 241 -93 87 -232 136 -331 117 -72 -14 -88 -24 -270 -171
-90 -72 -187 -142 -215 -155 -86 -41 -184 -33 -562 46 l-102 22 -243 -48
c-269 -52 -341 -57 -409 -27 -24 11 -121 81 -215 155 -94 74 -191 144 -216
156 -62 29 -131 35 -197 17z m179 -26 c50 -22 100 -59 270 -194 206 -165 219
-167 562 -101 130 25 251 46 268 46 18 0 123 -19 233 -42 148 -30 227 -41 297
-42 89 -1 99 1 155 32 33 18 123 84 200 147 210 173 274 198 406 159 116 -34
193 -95 274 -213 38 -56 112 -224 158 -361 31 -92 3 -665 -42 -861 -20 -89
-203 -561 -213 -551 -4 4 -10 84 -14 177 -10 264 -56 390 -162 452 -26 15 -85
66 -132 114 -131 132 -324 281 -411 316 -24 9 -84 44 -133 77 -49 33 -121 76
-160 96 l-71 36 -385 -1 c-440 -1 -387 9 -559 -103 -47 -31 -126 -78 -176
-105 -158 -86 -251 -155 -387 -286 -73 -70 -154 -142 -180 -160 -82 -55 -138
-189 -138 -326 0 -41 -5 -86 -11 -102 -6 -15 -14 -64 -18 -108 l-6 -79 -51
119 c-64 148 -129 334 -155 440 -11 44 -24 150 -29 235 -6 85 -15 191 -21 235
-7 44 -12 132 -12 195 -1 98 3 125 25 185 14 39 41 116 61 172 61 169 136 278
239 346 115 75 231 96 318 56z"/>
<path d="M5104 11721 c-54 -25 -112 -83 -136 -139 -47 -106 16 -241 131 -280
42 -15 134 -15 183 -2 114 32 183 193 129 299 -23 45 -91 108 -137 127 -46 19
-121 17 -170 -5z m162 -10 c87 -40 153 -124 154 -197 0 -17 -15 -60 -32 -95
-45 -87 -91 -114 -198 -113 -92 0 -143 24 -186 85 -25 37 -29 51 -29 114 0 62
4 77 28 113 44 63 125 109 197 111 14 0 43 -8 66 -18z"/>
<path d="M7549 11726 c-53 -19 -124 -73 -156 -119 -48 -69 -29 -173 46 -259
120 -136 343 -82 396 96 20 67 19 93 -9 151 -54 115 -170 170 -277 131z m170
-33 c67 -42 111 -112 111 -177 -1 -132 -92 -226 -221 -226 -77 0 -135 30 -177
93 -89 131 -59 236 88 312 81 42 128 42 199 -2z"/>
<path d="M3340 11435 c-127 -36 -202 -91 -241 -181 -13 -28 -27 -116 -44 -263
-22 -197 -28 -229 -54 -284 -16 -34 -45 -77 -65 -96 -19 -18 -126 -95 -238
-170 l-203 -136 -140 -207 c-77 -114 -156 -224 -175 -243 -64 -66 -112 -81
-357 -110 -241 -28 -291 -40 -344 -85 -41 -33 -95 -130 -115 -204 -20 -74 -17
-199 6 -292 21 -86 137 -327 195 -406 53 -73 408 -381 550 -478 39 -26 106
-65 150 -88 92 -46 451 -202 465 -202 23 0 6 28 -41 69 -27 23 -62 62 -77 85
-14 22 -49 66 -77 96 -67 71 -104 131 -126 202 -15 48 -17 70 -9 140 6 46 10
148 10 228 0 80 7 188 15 242 22 146 131 564 160 613 22 38 197 216 343 351
30 26 76 76 102 109 30 38 68 72 99 89 51 28 222 76 269 76 15 0 74 16 132 36
85 30 127 38 225 45 66 5 194 14 285 21 269 20 294 18 374 -21 38 -18 92 -56
120 -84 28 -27 81 -69 118 -93 36 -23 79 -59 95 -78 27 -34 53 -47 53 -26 0
11 -148 355 -200 465 -21 45 -60 110 -86 145 -95 130 -290 357 -393 460 -100
99 -114 109 -241 173 -74 37 -166 76 -205 88 -94 28 -260 34 -335 14z m311
-24 c43 -11 138 -51 224 -95 170 -87 195 -108 379 -321 283 -328 300 -355 495
-814 l31 -74 -42 39 c-24 22 -61 50 -83 64 -22 13 -68 50 -103 82 -65 61 -133
100 -211 124 -38 11 -65 11 -176 -1 -71 -8 -200 -17 -285 -20 -183 -8 -246
-17 -343 -52 -40 -14 -107 -31 -149 -38 -126 -22 -235 -55 -281 -86 -24 -16
-65 -55 -91 -87 -25 -32 -119 -126 -207 -208 -156 -145 -220 -216 -252 -280
-14 -28 -73 -245 -118 -439 -33 -144 -48 -295 -51 -530 l-3 -230 33 -68 c19
-38 60 -96 91 -130 32 -34 72 -83 89 -108 17 -26 53 -66 79 -90 27 -23 41 -40
33 -37 -58 22 -324 139 -415 183 -133 64 -202 112 -409 285 -253 212 -309 273
-388 420 -151 281 -174 479 -77 661 62 116 109 136 399 169 229 27 227 26 285
54 69 32 119 90 271 317 l132 195 204 136 c312 208 322 224 358 553 12 105 26
209 32 233 22 88 90 152 205 191 80 27 242 28 344 2z"/>
<path d="M3570 11080 c-174 -59 -219 -308 -73 -400 59 -37 162 -57 220 -41 79
22 131 86 154 190 21 97 -34 206 -124 250 -53 26 -105 26 -177 1z m197 -29
c26 -19 51 -50 68 -86 24 -47 27 -64 22 -114 -14 -160 -129 -234 -291 -187
-105 31 -153 111 -135 224 19 125 100 191 235 192 52 0 67 -4 101 -29z"/>
<path d="M1887 9379 c-124 -29 -196 -136 -185 -273 5 -61 28 -97 89 -138 88
-59 204 -58 288 2 59 43 85 99 83 182 -3 176 -111 266 -275 227z m175 -34 c55
-37 83 -103 83 -197 0 -69 -3 -80 -30 -119 -44 -61 -93 -84 -185 -84 -68 0
-80 3 -126 32 -71 46 -99 98 -90 171 9 75 37 134 80 168 49 39 90 52 166 53
54 1 72 -3 102 -24z"/>
<path d="M9189 11435 c-75 -19 -188 -64 -317 -129 -128 -64 -152 -87 -423
-413 -154 -186 -186 -231 -238 -332 -52 -103 -221 -481 -221 -495 0 -17 24 -1
61 39 23 24 72 65 109 89 37 25 77 58 89 74 26 37 99 85 182 118 l64 26 205
-11 c307 -17 394 -28 536 -66 71 -20 166 -42 212 -51 116 -21 202 -49 249 -81
22 -16 74 -68 116 -118 75 -91 168 -183 309 -307 99 -87 121 -134 159 -323 16
-80 35 -158 43 -173 8 -16 22 -56 30 -90 19 -70 46 -379 45 -497 -1 -44 2
-112 6 -151 6 -61 4 -78 -15 -122 -30 -71 -108 -173 -229 -302 -98 -106 -119
-137 -83 -126 9 3 138 59 285 124 295 130 299 132 552 343 280 234 311 267
397 431 92 176 115 237 132 350 11 73 11 102 1 161 -28 155 -83 245 -178 291
-43 21 -91 30 -282 51 -264 31 -303 43 -368 115 -23 26 -94 123 -157 216 -63
93 -130 186 -149 207 -19 21 -115 93 -214 160 -99 67 -201 141 -228 165 -74
66 -86 102 -114 328 -39 313 -51 352 -121 414 -99 87 -288 123 -445 85z m221
-6 c87 -14 192 -63 235 -110 46 -51 59 -104 90 -354 14 -115 33 -230 42 -255
26 -70 89 -127 295 -268 106 -72 207 -146 224 -164 17 -18 87 -114 154 -213
67 -99 141 -199 163 -223 69 -71 98 -80 366 -112 267 -32 308 -44 361 -108 42
-51 65 -104 85 -197 16 -69 16 -91 6 -167 -13 -100 -49 -208 -95 -288 -18 -30
-47 -86 -64 -124 -24 -52 -52 -89 -115 -151 -96 -95 -453 -395 -514 -431 -38
-23 -493 -226 -537 -240 -12 -4 13 29 58 77 111 117 192 221 228 293 36 70 36
66 20 381 -14 276 -27 373 -67 495 -18 58 -43 155 -55 215 -22 116 -54 198
-93 245 -14 16 -64 62 -113 103 -100 84 -201 187 -288 295 -73 91 -150 131
-306 162 -58 12 -152 34 -210 49 -58 16 -125 33 -150 39 -68 17 -241 30 -465
37 l-200 7 -83 -41 c-57 -28 -101 -59 -135 -94 -29 -29 -70 -64 -92 -77 -22
-14 -62 -45 -89 -70 -27 -25 -47 -38 -44 -30 21 53 173 390 206 456 45 89 63
113 271 364 242 291 255 302 406 375 141 69 253 110 337 124 74 12 94 12 168
0z"/>
<path d="M9065 11089 c-36 -21 -87 -73 -116 -118 -52 -80 -32 -191 49 -274 46
-47 122 -72 190 -62 165 24 232 140 180 315 -16 53 -52 95 -104 119 -55 26
-169 38 -199 20z m155 -20 c91 -24 137 -84 147 -194 13 -143 -65 -225 -214
-225 -97 0 -178 63 -208 162 -18 61 -18 62 -5 109 11 41 79 122 125 151 31 19
74 19 155 -3z"/>
<path d="M10764 9371 c-56 -25 -110 -92 -124 -153 -29 -118 11 -210 112 -262
121 -61 259 -26 325 82 43 70 19 214 -46 282 -61 65 -185 88 -267 51z m193
-16 c71 -30 104 -79 123 -184 14 -78 4 -114 -48 -164 -84 -82 -197 -90 -302
-20 -60 39 -85 87 -84 157 2 99 48 180 119 212 41 18 147 17 192 -1z"/>
<path d="M2700 11241 c-285 -82 -334 -103 -518 -225 -205 -136 -396 -354 -507
-581 -34 -68 -195 -587 -195 -626 0 -23 14 -24 66 -5 46 16 90 22 243 36 87 8
127 17 169 37 89 42 282 239 282 287 0 12 -10 16 -42 16 -48 0 -114 27 -141
57 -38 43 -70 145 -71 224 -1 73 1 79 38 133 48 70 150 166 201 191 62 29 158
31 235 5 111 -38 142 -70 155 -167 4 -29 11 -56 17 -59 22 -14 205 144 257
223 47 70 69 156 77 290 3 66 14 141 24 170 16 51 12 75 -14 72 -6 -1 -130
-36 -276 -78z m290 55 c0 -2 -7 -21 -16 -41 -10 -24 -19 -90 -24 -174 -13
-229 -52 -301 -246 -459 -29 -23 -57 -42 -63 -42 -6 0 -11 15 -11 33 0 84 -35
136 -115 172 -88 39 -148 49 -218 35 -81 -15 -128 -44 -204 -122 -97 -102
-123 -149 -123 -227 0 -81 34 -189 74 -237 34 -43 80 -64 134 -64 21 0 41 -3
45 -6 10 -10 -74 -113 -147 -182 -101 -94 -143 -112 -310 -128 -78 -8 -169
-21 -204 -30 -35 -9 -64 -15 -66 -13 -9 10 164 561 193 619 75 147 211 332
317 430 98 91 296 225 404 273 48 22 533 165 563 166 9 1 17 -1 17 -3z"/>
<path d="M6575 11309 c-33 -5 -164 -7 -291 -6 l-230 2 -85 -42 c-55 -28 -119
-72 -184 -129 -55 -47 -157 -124 -227 -170 -147 -97 -221 -167 -268 -256 -18
-35 -50 -82 -70 -105 -78 -89 -127 -217 -131 -338 -5 -131 14 -412 33 -500 28
-130 48 -142 55 -33 3 34 20 111 40 172 19 61 43 163 54 226 27 162 57 220
164 314 79 68 393 306 558 421 89 63 293 154 367 165 30 4 80 4 110 -1 66 -10
267 -106 373 -178 105 -70 566 -440 601 -482 50 -58 75 -127 86 -232 6 -64 24
-140 51 -223 22 -69 43 -151 46 -182 6 -73 11 -88 24 -75 31 31 78 468 65 620
-8 102 -41 193 -102 282 -29 42 -69 104 -90 139 -57 99 -126 166 -273 265 -75
50 -179 128 -231 172 -52 43 -116 94 -142 111 -84 57 -190 79 -303 63z m-278
-20 c59 -9 116 -8 235 1 143 12 163 12 222 -4 71 -20 141 -64 258 -164 40 -34
138 -107 218 -161 153 -104 218 -164 265 -246 16 -28 50 -79 76 -115 60 -83
95 -155 116 -233 28 -111 3 -561 -38 -662 -6 -15 -8 -7 -8 28 -1 26 -18 102
-40 170 -47 147 -48 150 -60 260 -12 103 -48 181 -114 244 -53 52 -439 360
-543 434 -85 61 -314 181 -379 198 -58 16 -147 13 -202 -5 -117 -39 -310 -143
-409 -220 -56 -44 -173 -132 -260 -196 -303 -223 -342 -272 -375 -470 -10 -63
-31 -152 -45 -198 -45 -147 -54 -184 -54 -224 0 -22 -2 -37 -5 -34 -9 9 -46
211 -44 238 1 14 -1 102 -5 195 -7 154 -5 177 13 249 23 87 54 147 111 216 20
25 52 73 70 108 47 89 117 155 266 254 71 47 174 124 229 172 181 156 296 194
502 165z"/>
<path d="M9796 11311 c-4 -5 3 -47 13 -93 11 -45 25 -132 31 -193 14 -138 22
-165 75 -240 73 -103 233 -241 255 -219 5 5 13 35 18 66 12 77 30 101 109 140
58 28 80 34 154 36 80 4 91 2 133 -23 48 -28 111 -93 186 -190 43 -55 45 -61
45 -124 0 -72 -26 -164 -59 -214 -29 -43 -75 -67 -141 -74 -35 -4 -55 -10 -55
-19 0 -34 147 -197 222 -245 80 -51 141 -69 292 -83 77 -8 161 -21 185 -30 47
-16 61 -14 61 10 0 23 -159 553 -180 602 -22 49 -142 231 -211 318 -147 186
-457 399 -664 454 -44 12 -161 46 -259 76 -188 57 -201 60 -210 45z m384 -112
c191 -55 255 -85 440 -206 149 -97 276 -226 386 -388 45 -66 94 -145 109 -175
27 -53 198 -610 190 -618 -2 -3 -25 3 -51 12 -26 9 -83 18 -128 21 -198 14
-280 39 -373 114 -55 43 -173 178 -173 197 0 7 24 13 55 16 61 5 97 26 132 77
36 52 63 149 63 222 0 63 -2 70 -43 125 -74 101 -155 181 -209 208 -85 42
-199 31 -311 -31 -60 -34 -97 -93 -97 -155 0 -21 -5 -38 -11 -38 -21 0 -108
71 -171 139 -99 107 -115 143 -133 306 -8 75 -22 163 -30 195 -24 94 -28 92
83 59 53 -16 176 -52 272 -80z"/>
<path d="M6266 10895 c-94 -27 -173 -76 -417 -259 -379 -284 -416 -335 -488
-666 -22 -102 -45 -221 -50 -265 -16 -121 -34 -423 -28 -461 3 -19 28 -66 56
-106 43 -62 60 -103 115 -273 35 -110 68 -211 71 -225 11 -39 25 -52 41 -39 8
6 14 19 14 29 0 31 68 154 110 197 52 55 79 68 219 110 177 52 295 80 415 98
99 16 114 16 170 2 34 -9 82 -18 108 -21 55 -6 389 -101 427 -121 70 -36 191
-203 191 -263 0 -24 27 -49 39 -36 5 5 36 101 71 214 70 232 93 285 150 354
36 44 40 53 40 105 0 31 -7 115 -15 186 -8 72 -15 163 -15 203 0 83 -57 377
-95 492 -33 99 -86 188 -155 258 -31 31 -140 117 -242 190 -103 73 -192 140
-200 149 -25 31 -158 111 -220 133 -80 28 -240 36 -312 15z m276 -20 c72 -21
151 -63 209 -111 30 -24 129 -98 220 -164 207 -149 247 -182 297 -246 42 -52
101 -163 120 -224 29 -92 81 -385 87 -490 3 -63 13 -175 21 -249 9 -73 13
-145 9 -159 -3 -13 -23 -45 -44 -71 -57 -67 -72 -104 -141 -331 -34 -113 -65
-209 -69 -213 -4 -4 -13 12 -20 35 -37 122 -148 250 -241 276 -19 6 -107 31
-194 56 -88 25 -176 46 -197 46 -20 0 -56 7 -79 15 -61 22 -145 19 -289 -11
-142 -28 -410 -103 -466 -130 -76 -36 -147 -132 -202 -273 -8 -21 -21 12 -86
210 -62 191 -84 246 -118 294 -68 96 -69 102 -53 335 16 238 23 285 75 520 69
305 107 356 462 623 258 194 295 218 368 247 102 41 228 46 331 15z"/>
<path d="M6350 10538 c-24 -13 -25 -17 -22 -94 l4 -80 -40 -12 c-50 -15 -60
-40 -37 -92 15 -34 16 -41 1 -84 -9 -26 -16 -60 -16 -75 0 -25 -17 -44 -107
-121 -60 -50 -116 -106 -126 -124 -22 -42 -12 -72 43 -132 21 -23 52 -69 68
-101 35 -68 59 -92 115 -115 37 -14 42 -20 39 -45 -3 -42 5 -68 35 -103 22
-27 25 -35 15 -51 -33 -52 8 -95 83 -87 64 8 78 22 71 73 -6 36 -3 46 25 81
25 32 30 45 25 74 -5 35 -5 36 59 69 60 31 66 37 76 77 7 28 29 63 63 101 115
127 111 139 -107 327 -59 51 -68 62 -62 84 3 14 -1 45 -11 72 -16 45 -16 50 0
85 16 33 16 38 1 61 -9 14 -30 27 -46 31 -40 8 -43 20 -29 99 7 43 8 70 1 77
-16 16 -94 19 -121 5z m103 -14 c12 -4 13 -11 6 -34 -6 -15 -9 -52 -7 -81 3
-52 4 -54 38 -65 49 -16 56 -33 37 -83 -15 -37 -16 -45 -2 -77 8 -20 15 -54
15 -75 0 -34 6 -43 67 -96 178 -154 191 -171 172 -220 -5 -16 -29 -48 -53 -73
-55 -58 -76 -89 -76 -115 0 -28 -34 -59 -91 -83 -52 -23 -60 -35 -47 -71 7
-19 4 -31 -11 -50 -42 -52 -52 -78 -41 -106 6 -15 8 -31 5 -36 -11 -16 -82
-30 -108 -20 -35 14 -41 28 -23 56 20 31 21 26 -15 71 -26 32 -30 46 -27 84
l3 45 -51 25 c-70 34 -84 47 -110 106 -12 28 -45 77 -73 109 -67 77 -67 97 2
163 28 27 80 73 115 102 67 54 82 80 82 135 0 19 5 37 11 41 7 4 9 22 5 48
-16 102 -17 100 48 125 l29 12 -6 79 c-5 57 -3 80 6 83 17 8 83 8 100 1z"/>
<path d="M6386 10228 c-2 -7 -11 -33 -20 -58 -9 -25 -16 -63 -16 -83 0 -21 -4
-46 -9 -56 -5 -9 -57 -57 -115 -106 -73 -60 -106 -95 -106 -109 0 -37 123
-195 200 -256 24 -19 34 -37 41 -75 16 -88 61 -98 74 -16 10 59 22 79 69 113
53 38 176 202 176 233 0 15 -33 50 -109 114 -60 51 -112 100 -115 108 -3 8 -6
36 -7 61 0 74 -50 175 -63 130z m38 -64 c9 -26 13 -57 10 -70 -11 -45 6 -71
98 -150 111 -94 138 -120 138 -132 0 -19 -141 -195 -178 -222 -48 -34 -64 -60
-71 -115 -8 -55 -34 -54 -41 1 -7 51 -32 91 -71 112 -28 16 -179 209 -179 230
0 5 47 48 105 96 111 92 140 131 132 175 -6 26 22 121 34 121 4 0 14 -21 23
-46z"/>
<path d="M2254 10727 c-27 -24 -28 -25 -11 -51 10 -14 24 -26 31 -26 23 0 78
58 74 77 -5 29 -60 29 -94 0z m77 -16 c-16 -29 -56 -52 -70 -38 -27 27 -2 57
46 57 30 0 33 -2 24 -19z"/>
<path d="M10457 10743 c-13 -12 -7 -31 19 -62 32 -38 58 -39 81 -5 17 26 16
27 -11 50 -26 23 -75 32 -89 17z m87 -35 c8 -14 7 -22 -6 -35 -16 -16 -19 -16
-39 3 -11 10 -25 27 -31 37 -8 16 -6 18 28 15 22 -2 41 -10 48 -20z"/>
<path d="M10314 10729 c-12 -4 -29 -18 -38 -31 -47 -67 21 -177 126 -202 39
-9 86 -61 94 -103 4 -24 22 -51 50 -79 67 -67 140 -70 181 -8 17 27 17 27 -17
56 -19 16 -77 50 -128 75 -94 48 -110 63 -130 120 -15 46 -89 170 -104 176 -7
2 -23 1 -34 -4z m46 -31 c8 -13 37 -68 65 -122 l50 -99 97 -51 c131 -69 156
-89 142 -112 -6 -11 -22 -26 -36 -33 -23 -13 -30 -13 -68 4 -49 22 -86 63 -99
110 -15 56 -47 92 -99 111 -69 26 -90 42 -119 91 -22 39 -24 47 -13 73 21 51
57 63 80 28z"/>
<path d="M2427 10691 c-13 -16 -43 -67 -66 -114 -40 -83 -78 -127 -108 -127
-36 0 -193 -96 -193 -118 0 -17 33 -53 61 -67 27 -14 33 -14 72 3 55 25 93 67
106 117 13 50 49 85 122 117 61 28 105 76 115 126 5 26 1 36 -24 62 -38 37
-54 38 -85 1z m85 -22 c20 -26 20 -27 0 -65 -26 -50 -45 -67 -112 -97 -67 -30
-93 -57 -117 -122 -20 -55 -87 -115 -127 -115 -29 0 -76 36 -76 59 0 19 99 81
170 106 61 21 76 38 122 130 72 143 97 162 140 104z"/>
<path d="M2071 10544 c-25 -31 -28 -82 -6 -90 20 -8 63 21 78 53 10 22 8 28
-12 44 -30 25 -36 24 -60 -7z m43 0 c24 -9 19 -40 -11 -64 -20 -16 -28 -18
-34 -8 -9 14 -3 46 13 66 12 14 11 14 32 6z"/>
<path d="M10669 10551 c-20 -16 -22 -22 -12 -44 15 -32 58 -61 78 -53 22 8 19
59 -6 90 -24 31 -30 32 -60 7z m49 -13 c7 -7 12 -27 12 -46 0 -33 -1 -34 -22
-20 -30 20 -42 42 -35 62 7 19 28 21 45 4z"/>
<path d="M3860 10245 c-129 -30 -287 -54 -415 -64 -75 -6 -155 -18 -188 -30
-80 -26 -158 -82 -208 -149 -63 -84 -144 -166 -224 -227 -151 -116 -198 -216
-215 -460 -6 -78 -24 -207 -41 -290 -26 -124 -30 -164 -25 -230 6 -87 56 -345
80 -411 30 -86 105 -182 211 -269 39 -32 102 -89 140 -126 63 -61 214 -169
236 -169 19 0 7 24 -29 64 -21 23 -67 96 -101 163 -34 66 -89 154 -122 194
-114 143 -122 202 -76 584 54 450 69 520 143 690 59 134 109 192 207 240 110
53 288 102 454 124 293 41 608 72 653 66 66 -9 141 -46 210 -104 33 -28 113
-77 178 -110 64 -33 140 -81 169 -106 52 -46 73 -55 73 -32 0 25 -130 206
-222 307 -201 223 -282 277 -459 305 -53 8 -118 22 -145 30 -73 23 -207 28
-284 10z m298 -29 c53 -13 128 -28 166 -34 124 -19 184 -57 336 -212 124 -126
209 -231 271 -335 l23 -40 -54 48 c-30 26 -104 72 -165 102 -60 30 -141 80
-180 111 -109 88 -139 99 -275 99 -110 -1 -472 -39 -670 -71 -113 -18 -302
-75 -383 -116 -96 -48 -144 -100 -198 -213 -89 -189 -108 -274 -160 -725 -46
-396 -38 -453 80 -598 28 -35 78 -116 111 -180 32 -65 76 -137 97 -161 31 -37
33 -42 12 -31 -78 42 -200 145 -396 337 -89 87 -145 181 -158 266 -3 23 -17
97 -31 163 -31 158 -31 258 1 399 14 61 30 173 36 250 21 285 57 362 227 499
75 60 158 146 216 223 75 100 169 147 324 163 251 26 305 33 402 55 141 31
245 31 368 1z"/>
<path d="M8745 10253 c-16 -2 -64 -13 -105 -23 -41 -10 -109 -24 -150 -30
-141 -23 -270 -102 -370 -227 -30 -37 -87 -102 -126 -143 -64 -67 -174 -219
-174 -241 0 -23 23 -15 62 21 24 22 95 67 159 101 64 34 152 88 195 121 87 67
141 94 206 106 64 12 257 -3 473 -37 105 -16 231 -35 282 -41 161 -20 392
-105 467 -171 61 -54 86 -99 136 -244 61 -178 66 -205 120 -682 38 -344 31
-390 -80 -517 -29 -33 -77 -110 -115 -186 -37 -72 -85 -150 -110 -178 -25 -28
-45 -53 -45 -56 0 -55 420 276 522 411 53 70 87 151 105 246 8 45 26 137 39
204 28 141 29 165 9 253 -32 145 -55 292 -64 411 -16 214 -52 288 -204 418
-51 43 -141 134 -202 201 -157 174 -196 193 -435 211 -80 6 -188 19 -240 30
-234 49 -272 53 -355 42z m190 -22 c22 -5 81 -18 131 -30 50 -11 156 -25 234
-31 278 -21 305 -33 467 -212 64 -71 155 -162 202 -201 148 -125 183 -202 201
-443 6 -78 22 -195 37 -260 36 -167 39 -249 15 -359 -11 -49 -26 -125 -32
-168 -27 -182 -82 -272 -268 -439 -130 -116 -206 -176 -277 -219 l-40 -23 32
37 c18 20 61 94 97 164 38 74 87 153 117 188 66 77 100 150 106 229 5 62 -31
425 -68 681 -22 153 -80 350 -132 448 -36 69 -122 150 -181 171 -23 8 -91 33
-153 55 -74 27 -149 45 -225 56 -62 8 -203 29 -313 46 -143 23 -239 32 -335
33 -126 1 -139 -1 -190 -25 -30 -14 -89 -52 -130 -83 -41 -32 -115 -78 -165
-103 -95 -48 -205 -120 -205 -134 0 -5 -5 -9 -10 -9 -19 0 66 123 140 204 42
44 99 110 129 146 105 129 222 206 351 231 36 6 110 22 165 35 104 23 230 30
300 15z"/>
<path d="M3860 9790 c-118 -21 -240 -39 -270 -39 -166 -2 -360 -110 -450 -251
-48 -74 -78 -176 -95 -317 -8 -70 -24 -184 -35 -253 -49 -297 -46 -408 16
-533 82 -164 218 -377 303 -474 47 -55 124 -143 170 -196 46 -54 97 -105 115
-114 17 -9 65 -22 106 -29 62 -11 112 -32 285 -118 116 -59 218 -106 229 -106
21 0 22 -5 -23 120 -53 147 -43 198 80 418 154 275 236 382 342 444 40 23 114
70 165 104 51 34 140 86 198 116 104 52 107 53 192 52 72 0 98 -5 152 -28 90
-38 110 -42 110 -21 0 9 -26 64 -59 123 -137 250 -181 355 -181 436 0 57 -20
82 -136 174 -55 44 -139 116 -187 160 -85 81 -310 238 -417 292 -95 48 -187
71 -295 76 -84 3 -134 -3 -315 -36z m447 5 c35 -8 91 -28 125 -43 106 -49 356
-218 442 -301 45 -42 124 -111 176 -153 138 -110 141 -114 150 -200 4 -40 18
-97 31 -127 24 -56 141 -282 186 -360 29 -50 36 -50 -87 -6 -88 32 -189 36
-260 10 -54 -19 -194 -98 -310 -175 -47 -31 -107 -69 -133 -84 -71 -40 -111
-79 -176 -170 -67 -93 -247 -402 -267 -460 -22 -62 -17 -170 12 -251 13 -38
27 -78 31 -88 4 -13 -58 13 -218 93 -182 89 -237 112 -293 120 -38 6 -81 17
-96 25 -15 8 -63 56 -107 107 -44 51 -119 138 -167 193 -89 102 -243 344 -314
493 -30 63 -35 86 -39 165 -5 96 -2 124 41 422 51 347 53 355 95 441 86 173
286 292 496 294 28 1 133 16 235 34 209 38 347 45 447 21z"/>
<path d="M3468 9336 c-20 -20 -39 -45 -43 -56 -8 -26 11 -50 39 -50 26 0 76
-48 76 -74 0 -9 -7 -30 -15 -47 -20 -38 -8 -62 45 -83 30 -12 43 -25 55 -53 9
-21 28 -50 42 -65 27 -29 27 -27 6 -177 -4 -30 -2 -42 5 -37 11 6 29 153 24
191 -1 11 -13 29 -27 40 -13 11 -31 37 -39 58 -12 29 -25 42 -61 57 -48 21
-57 41 -30 76 8 10 15 27 15 36 0 27 -57 86 -90 93 -20 4 -30 13 -30 25 0 21
76 93 93 87 6 -2 15 -18 19 -35 5 -18 24 -43 44 -58 33 -26 38 -27 67 -15 56
23 70 19 92 -24 14 -27 34 -47 61 -60 23 -11 52 -33 65 -48 l24 -28 85 10 c47
6 120 12 163 13 106 3 116 -8 128 -133 6 -62 17 -108 31 -135 l21 -42 -22 -61
c-25 -68 -22 -91 11 -106 14 -6 24 -20 26 -35 8 -77 13 -90 42 -105 51 -26 33
-89 -31 -116 -28 -11 -33 -11 -37 1 -11 32 -49 57 -100 64 -42 5 -53 11 -64
34 -16 32 -40 33 -111 6 -47 -19 -48 -19 -111 4 -36 12 -84 22 -108 22 -55 0
-112 16 -128 35 -7 9 -16 41 -20 73 l-7 57 -2 -53 c0 -29 4 -62 10 -74 14 -26
68 -48 121 -48 24 0 79 -11 124 -26 l81 -25 62 25 61 25 15 -30 c15 -28 23
-32 97 -44 29 -4 42 -13 53 -35 11 -20 23 -30 39 -30 37 0 89 41 100 79 9 31
7 35 -26 65 -29 24 -37 40 -41 76 -4 35 -13 50 -36 68 l-30 24 19 49 c24 61
25 97 3 129 -11 15 -19 55 -24 118 -12 160 -31 172 -246 153 l-147 -13 -21 25
c-11 14 -37 33 -59 42 -29 12 -42 26 -54 56 -19 48 -49 59 -99 35 -34 -16 -36
-16 -67 7 -17 13 -36 40 -41 58 -14 49 -50 51 -97 5z"/>
<path d="M3685 9110 c-10 -17 34 -103 70 -136 40 -36 42 -55 25 -238 -9 -107
-7 -123 18 -130 55 -17 233 -35 291 -30 60 5 69 4 100 -20 68 -51 94 -26 54
50 -22 42 -25 56 -20 110 4 42 1 82 -9 121 -9 32 -15 78 -15 103 1 87 11 83
-175 75 l-164 -7 -27 29 c-41 44 -137 91 -148 73z m128 -80 c43 -40 60 -42
260 -27 l107 8 0 -52 c0 -28 7 -79 16 -112 11 -43 14 -81 9 -123 -6 -61 3
-100 37 -146 22 -31 -1 -32 -57 -3 -49 25 -60 27 -103 18 -32 -6 -71 -5 -122
3 -41 7 -91 13 -110 13 -63 2 -64 3 -52 156 11 155 4 196 -35 222 -20 13 -63
87 -63 109 0 11 80 -35 113 -66z"/>
<path d="M8480 9814 c-67 -18 -368 -196 -503 -297 -109 -82 -340 -287 -363
-323 -9 -13 -20 -54 -24 -92 -10 -78 -39 -146 -158 -371 -45 -84 -82 -159 -82
-167 0 -21 21 -17 91 16 35 16 92 33 125 39 124 19 191 -9 529 -221 170 -107
181 -116 222 -178 23 -36 55 -83 71 -105 65 -89 213 -375 223 -431 14 -76 -3
-183 -41 -258 -46 -90 -31 -93 108 -18 263 142 332 172 413 181 41 5 85 14 97
20 12 6 65 64 118 129 54 64 128 151 165 192 74 84 225 308 287 427 51 99 72
171 72 247 0 77 -36 363 -61 485 -10 51 -19 111 -19 133 0 61 -19 125 -66 226
-74 159 -187 247 -375 291 -132 32 -625 92 -733 90 -23 0 -66 -7 -96 -15z
m295 -14 c571 -66 681 -95 799 -213 87 -87 165 -274 166 -397 0 -19 7 -67 15
-105 28 -129 66 -467 59 -519 -9 -68 -37 -146 -81 -225 -69 -125 -200 -316
-274 -401 -41 -47 -114 -134 -163 -193 -93 -113 -124 -137 -179 -137 -73 0
-223 -65 -474 -205 -46 -25 -83 -44 -83 -40 0 3 11 27 24 53 35 70 49 144 44
232 -4 76 -7 82 -98 249 -51 95 -109 194 -129 221 -20 28 -52 75 -71 106 -19
31 -51 68 -70 83 -52 41 -384 243 -468 285 -121 61 -239 58 -372 -9 -27 -14
-52 -25 -55 -25 -2 0 49 105 114 233 101 199 119 241 124 292 3 33 10 72 15
87 13 31 237 236 362 329 109 81 393 254 469 286 64 26 172 30 326 13z"/>
<path d="M9247 9368 c-9 -5 -17 -20 -17 -34 0 -16 -12 -36 -32 -55 -37 -33
-46 -35 -74 -14 -40 30 -80 12 -102 -45 -6 -16 -37 -42 -81 -68 l-72 -43 -124
13 c-202 20 -235 0 -246 -146 -5 -59 -13 -96 -29 -124 -24 -43 -24 -56 6 -134
l18 -46 -32 -30 c-21 -20 -32 -39 -32 -59 0 -49 -11 -71 -41 -83 -44 -19 -40
-65 9 -113 21 -20 47 -37 58 -37 22 0 47 23 57 51 5 16 47 29 94 29 16 0 29
10 41 30 19 34 16 34 113 4 55 -16 57 -16 85 4 21 15 52 22 118 27 163 12 174
29 156 241 l-13 145 30 32 c17 18 35 45 40 61 9 30 15 35 68 58 36 16 44 52
21 96 -14 28 -14 30 15 65 17 21 39 37 49 37 10 0 26 7 34 16 14 13 14 19 2
42 -16 30 -63 76 -87 84 -8 3 -23 2 -32 -4z m74 -47 c48 -47 49 -68 7 -79 -18
-4 -45 -24 -61 -45 l-30 -37 18 -41 c22 -49 15 -67 -35 -83 -26 -8 -40 -22
-55 -52 -11 -22 -33 -56 -48 -74 -23 -26 -27 -40 -23 -63 11 -52 19 -253 12
-281 -9 -38 -58 -56 -148 -56 -55 0 -81 -5 -106 -20 -41 -25 -55 -25 -127 0
-63 22 -72 20 -85 -16 -9 -23 -18 -27 -92 -39 -28 -4 -41 -14 -57 -40 -11 -19
-26 -35 -32 -35 -17 0 -89 75 -89 94 0 8 12 23 28 33 36 23 40 29 47 84 5 36
13 51 36 68 16 12 29 27 29 33 0 6 -12 36 -26 68 l-26 58 26 48 c19 36 26 64
26 104 0 73 16 126 43 145 24 17 132 20 250 6 60 -6 72 -5 105 15 20 13 54 32
75 44 24 13 44 34 53 55 20 49 43 58 84 34 l33 -21 41 29 c25 18 42 38 44 53
4 28 19 50 34 50 6 0 28 -17 49 -39z"/>
<path d="M9042 9090 c-23 -11 -55 -34 -69 -51 l-27 -32 -146 8 c-163 8 -180 8
-188 1 -13 -14 -35 -190 -34 -277 2 -88 -1 -100 -24 -134 -43 -64 -11 -99 50
-53 26 20 41 23 101 21 95 -3 292 26 311 45 9 8 13 24 10 36 -2 12 -8 75 -11
142 -8 127 -2 155 37 182 18 13 49 68 62 110 9 28 -12 29 -72 2z m43 -37 c-9
-22 -31 -53 -49 -71 -18 -17 -36 -44 -39 -59 -3 -15 -1 -88 5 -161 6 -73 8
-135 5 -139 -14 -14 -248 -41 -284 -32 -48 10 -78 3 -126 -29 -51 -34 -68 -18
-33 33 31 45 41 95 28 134 -7 21 -6 56 5 127 23 155 20 149 78 149 28 -1 98
-4 156 -9 l106 -8 43 38 c37 33 109 76 118 69 2 -1 -4 -20 -13 -42z"/>
<path d="M6290 8958 c-114 -19 -362 -94 -431 -129 -56 -28 -115 -102 -138
-172 -27 -80 -61 -233 -61 -275 0 -42 4 -49 152 -282 68 -107 145 -238 170
-290 77 -156 156 -281 224 -352 87 -90 118 -157 112 -246 -3 -52 -10 -76 -32
-109 -33 -49 -31 -74 6 -87 21 -7 35 -5 61 9 24 12 43 16 63 11 16 -4 48 -10
71 -13 62 -7 66 14 18 100 -34 62 -37 75 -32 119 9 76 44 136 118 208 48 46
78 87 104 140 86 173 226 417 337 583 65 98 118 184 118 192 0 26 -41 216 -60
278 -50 161 -147 216 -542 307 -73 16 -134 30 -137 29 -4 0 -58 -10 -121 -21z
m330 -42 c301 -75 386 -119 437 -226 23 -51 59 -196 69 -282 l7 -57 -110 -163
c-106 -157 -229 -370 -328 -567 -37 -74 -63 -110 -120 -167 -54 -54 -78 -86
-93 -126 -35 -95 -34 -119 4 -198 19 -39 34 -78 34 -86 0 -19 -42 -18 -79 3
-26 16 -34 16 -63 4 -47 -19 -94 -25 -103 -12 -3 6 7 32 24 58 36 54 46 97 37
161 -9 69 -41 124 -120 211 -76 83 -140 184 -220 346 -27 55 -107 192 -178
303 -71 112 -134 214 -140 227 -8 17 -4 53 17 151 52 253 89 297 308 370 146
49 331 92 402 93 22 0 119 -19 215 -43z"/>
<path d="M6304 8575 c-139 -44 -159 -103 -63 -189 27 -24 49 -47 49 -50 0 -3
-18 -15 -40 -26 -50 -25 -68 -53 -73 -110 -3 -25 -8 -66 -12 -92 -6 -39 -4
-51 14 -77 13 -17 22 -44 21 -59 -4 -60 2 -82 35 -131 47 -68 54 -88 65 -192
10 -101 20 -126 58 -140 39 -15 108 14 128 54 9 17 20 69 23 116 8 94 18 120
65 169 28 29 31 40 32 95 0 38 7 75 18 95 15 30 16 46 8 123 -11 100 -25 129
-76 153 -20 9 -36 20 -36 23 0 3 23 30 50 59 86 90 64 144 -75 180 -61 17
-136 16 -191 -1z m210 -19 c103 -31 115 -83 36 -161 -27 -27 -50 -54 -50 -61
0 -6 18 -19 41 -29 52 -24 65 -51 74 -157 6 -73 5 -92 -9 -113 -10 -15 -16
-46 -16 -84 0 -54 -3 -63 -40 -107 -41 -50 -60 -109 -60 -188 0 -87 -38 -136
-105 -136 -44 0 -61 29 -69 119 -10 106 -19 135 -63 200 -32 47 -38 63 -39
112 -1 39 -8 68 -22 92 -18 28 -20 39 -12 68 6 19 10 51 10 71 0 55 18 85 72
118 26 16 48 32 48 36 0 3 -25 29 -55 58 -44 41 -55 58 -55 83 0 36 13 48 77
73 59 23 171 26 237 6z"/>
<path d="M6368 8509 c-36 -21 -9 -89 35 -89 16 0 57 37 57 52 0 15 -40 48 -57
48 -10 0 -26 -5 -35 -11z m67 -19 c9 -14 -3 -47 -20 -54 -21 -8 -60 27 -52 47
7 19 62 24 72 7z"/>
<path d="M6348 8222 c-56 -56 -67 -91 -43 -129 14 -20 16 -39 12 -87 -3 -35
-1 -69 5 -81 16 -31 69 -95 78 -95 4 0 28 27 53 61 l45 61 -16 39 c-14 36 -14
43 1 75 24 49 22 110 -4 132 -11 9 -33 29 -49 45 -15 15 -30 27 -32 27 -1 -1
-24 -22 -50 -48z m66 13 c3 -8 17 -20 31 -27 37 -17 54 -80 32 -118 -20 -33
-22 -78 -6 -114 10 -22 8 -29 -19 -60 -17 -19 -35 -43 -41 -53 -10 -17 -12
-16 -36 12 -44 52 -56 81 -45 110 14 37 12 78 -5 101 -26 35 -18 70 28 118 47
50 52 53 61 31z"/>
<path d="M5070 8504 c-8 -4 -106 -56 -217 -116 -208 -113 -278 -163 -328 -240
-15 -24 -45 -68 -65 -98 -21 -31 -66 -112 -101 -180 l-64 -125 0 -90 c0 -83 3
-95 34 -155 37 -72 136 -219 160 -236 8 -6 121 -35 250 -63 130 -29 281 -67
336 -86 212 -71 353 -103 475 -108 117 -4 158 -16 204 -56 26 -23 54 -82 62
-131 4 -22 14 -50 23 -61 15 -18 17 -19 39 -3 13 9 32 36 43 60 15 36 27 48
62 63 42 18 72 57 59 78 -4 6 -44 25 -90 43 -128 49 -161 105 -162 277 0 88
-5 118 -36 220 -79 255 -106 356 -149 555 -51 236 -54 243 -90 286 -30 36
-173 125 -237 148 -46 16 -183 28 -208 18z m185 -28 c63 -17 215 -106 248
-145 32 -38 39 -60 82 -261 48 -222 56 -254 127 -485 59 -193 61 -204 62 -315
1 -108 3 -118 31 -168 37 -67 59 -85 151 -119 41 -16 74 -33 74 -40 0 -13 -47
-53 -63 -53 -18 0 -57 -42 -57 -61 0 -23 -44 -74 -57 -66 -5 3 -15 32 -22 64
-16 72 -49 125 -101 159 -37 25 -53 28 -173 35 -110 6 -157 14 -282 49 -82 23
-172 51 -200 62 -27 11 -160 44 -295 74 -135 30 -256 59 -270 65 -15 6 -51 50
-92 112 -96 146 -113 187 -112 274 0 70 2 77 68 205 88 171 183 315 238 363
24 21 136 89 248 151 l205 113 70 0 c39 1 93 -5 120 -13z"/>
<path d="M4973 8032 c-70 -28 -131 -78 -173 -143 -87 -135 -58 -199 91 -199
54 0 60 -2 54 -17 -4 -10 -9 -38 -12 -63 -4 -42 -1 -50 48 -115 62 -82 73 -92
116 -100 18 -3 38 -16 48 -31 18 -28 86 -63 125 -64 45 -1 98 -26 162 -77 35
-28 74 -56 86 -62 46 -24 115 14 127 69 9 40 -16 92 -73 153 -62 66 -72 85
-72 142 0 57 -11 79 -61 126 -26 24 -39 45 -39 62 0 18 -16 40 -57 77 -92 82
-121 91 -210 64 -22 -6 -23 -4 -23 53 0 76 -14 117 -46 132 -32 14 -40 14 -91
-7z m101 -21 c13 -14 18 -36 18 -78 0 -32 2 -66 4 -75 6 -21 36 -23 82 -7 25
8 38 7 67 -7 53 -25 145 -115 145 -142 0 -14 18 -40 45 -66 38 -37 45 -50 45
-83 0 -68 19 -113 76 -174 80 -87 94 -140 49 -184 -38 -39 -73 -33 -146 26
-74 59 -128 89 -161 89 -51 0 -104 23 -138 60 -22 24 -46 39 -65 42 -23 2 -43
20 -92 81 -35 44 -63 87 -63 97 0 9 6 36 14 58 19 54 8 62 -80 62 -113 0 -132
40 -72 152 64 120 221 206 272 149z"/>
<path d="M4935 7920 c-34 -13 -57 -46 -53 -77 5 -48 77 -44 98 6 20 50 -3 87
-45 71z m35 -34 c0 -44 -10 -56 -46 -56 -41 0 -45 22 -12 57 29 31 58 30 58
-1z"/>
<path d="M5074 7653 c5 -79 29 -123 66 -123 25 0 66 -35 80 -70 9 -21 22 -33
49 -40 46 -13 108 -13 116 0 3 5 3 39 -1 75 -7 64 -8 66 -48 88 -28 15 -48 36
-61 65 -31 63 -42 69 -128 75 l-78 6 5 -76z m158 40 c9 -10 23 -35 31 -55 9
-22 31 -46 54 -61 34 -21 40 -31 51 -83 6 -32 8 -61 4 -65 -4 -3 -32 -3 -62 0
-50 6 -56 9 -83 49 -20 29 -44 50 -72 62 -54 23 -58 31 -65 108 l-5 62 66 0
c50 0 70 -4 81 -17z"/>
<path d="M7550 8492 c-68 -23 -109 -44 -180 -93 -123 -84 -113 -64 -175 -344
-30 -137 -66 -284 -79 -325 -14 -41 -32 -104 -41 -140 -9 -36 -27 -100 -41
-143 -19 -61 -24 -100 -24 -181 0 -90 -3 -108 -26 -155 -31 -61 -82 -102 -157
-127 -72 -23 -85 -36 -64 -67 9 -14 33 -33 54 -43 22 -11 44 -32 52 -49 20
-45 41 -65 67 -65 18 0 26 10 43 58 32 88 43 105 94 139 63 42 104 53 202 53
88 0 98 2 390 90 110 34 295 81 412 105 117 25 221 50 230 56 28 17 121 151
162 232 33 66 36 79 36 157 0 83 -2 88 -52 190 -54 109 -201 352 -231 382 -27
27 -422 257 -461 269 -68 20 -153 20 -211 1z m207 -16 c36 -13 371 -203 435
-248 34 -23 173 -247 244 -392 51 -103 54 -113 54 -185 0 -67 -4 -86 -34 -146
-41 -85 -122 -202 -156 -226 -15 -11 -97 -32 -204 -53 -167 -33 -360 -85 -586
-158 -71 -22 -126 -32 -215 -38 -131 -9 -168 -18 -220 -50 -49 -30 -81 -72
-100 -132 -24 -73 -38 -87 -65 -63 -11 10 -20 25 -20 34 0 20 -49 71 -69 71
-18 0 -51 29 -51 46 0 7 30 22 67 35 132 43 203 154 190 293 -8 79 2 122 97
441 18 61 57 218 86 350 59 272 48 252 184 342 128 86 262 115 363 79z"/>
<path d="M7744 8040 c-39 -16 -54 -49 -54 -123 0 -67 -1 -69 -22 -62 -78 25
-95 20 -189 -52 -65 -49 -89 -78 -89 -107 0 -10 -18 -38 -39 -61 -26 -29 -42
-56 -46 -82 -14 -90 -29 -124 -80 -185 -88 -108 -94 -131 -41 -184 56 -56 103
-42 222 67 32 29 53 39 90 44 85 10 119 24 154 60 19 19 38 35 42 35 24 0 91
56 132 111 43 56 47 68 43 104 -2 22 -8 50 -12 63 -7 21 -5 22 58 22 135 0
163 48 100 173 -31 63 -91 119 -165 157 -66 32 -72 33 -104 20z m93 -30 c60
-27 138 -103 168 -163 51 -103 26 -141 -91 -143 -41 0 -77 -3 -80 -7 -3 -3 2
-26 11 -52 8 -26 13 -57 9 -69 -14 -45 -96 -136 -142 -160 -26 -13 -56 -34
-67 -46 -28 -32 -93 -60 -141 -60 -43 0 -50 -4 -170 -97 -37 -29 -75 -53 -84
-53 -24 0 -70 38 -81 67 -11 30 -7 38 65 128 59 74 70 99 81 179 6 41 15 58
51 95 30 30 44 53 44 71 0 27 18 47 98 109 58 44 89 52 141 34 24 -8 46 -12
49 -8 3 3 6 40 7 81 0 67 3 78 24 95 29 24 55 24 108 -1z"/>
<path d="M7827 7918 c-21 -11 -22 -56 -1 -86 19 -28 79 -31 92 -4 23 43 -48
114 -91 90z m58 -33 c29 -28 32 -50 9 -59 -39 -15 -77 23 -66 66 6 25 28 22
57 -7z"/>
<path d="M7585 7721 c-27 -12 -50 -40 -62 -76 -5 -17 -28 -42 -54 -60 -47 -33
-56 -54 -58 -134 l-1 -44 53 7 c28 3 62 6 74 6 16 0 28 12 43 41 17 32 33 46
74 64 29 13 57 32 61 42 4 10 9 51 11 91 l4 72 -63 -1 c-34 0 -71 -4 -82 -8z
m128 -63 c-5 -83 -16 -101 -73 -125 -36 -15 -53 -30 -67 -58 -16 -31 -25 -38
-54 -40 -19 -1 -49 -5 -67 -9 l-33 -8 6 44 c11 78 15 87 44 103 35 18 71 61
71 85 0 32 39 55 104 61 33 3 64 7 67 7 3 1 4 -26 2 -60z"/>
<path d="M11330 8154 c-25 -2 -156 -13 -293 -24 -143 -12 -278 -29 -322 -40
-97 -25 -580 -212 -580 -225 0 -6 37 -11 85 -12 47 0 101 -6 120 -12 19 -6 64
-11 100 -11 80 -1 136 -12 216 -46 52 -21 72 -38 140 -116 43 -51 99 -112 124
-138 68 -68 199 -227 242 -291 21 -31 45 -76 53 -100 9 -23 52 -99 96 -167
101 -155 112 -181 111 -262 -7 -794 1 -714 -96 -865 -28 -44 -80 -131 -115
-193 -81 -144 -105 -176 -276 -363 -77 -84 -152 -170 -167 -191 -34 -47 -61
-64 -146 -96 -67 -24 -139 -33 -399 -49 -102 -6 -124 -15 -80 -33 242 -99 519
-201 577 -214 74 -16 371 -44 545 -51 71 -3 56 0 -70 14 -88 10 -223 24 -300
30 -177 14 -209 23 -479 130 -121 49 -228 90 -236 93 -19 6 182 30 280 33 50
2 104 12 159 31 97 32 89 24 321 283 155 172 235 280 299 401 19 36 59 103 89
150 30 47 66 110 80 140 l24 55 2 390 1 390 -34 60 c-19 33 -60 99 -92 147
-33 48 -68 112 -79 141 -11 30 -38 80 -60 111 -48 68 -236 293 -254 303 -8 5
-53 54 -100 110 -48 55 -101 108 -119 116 -90 42 -118 49 -228 56 -64 5 -122
12 -129 16 -7 4 -47 10 -88 14 l-77 6 200 77 c361 140 348 137 660 163 294 25
462 29 520 12 109 -32 299 -108 358 -143 201 -122 306 -342 234 -495 -15 -30
-66 -103 -114 -162 -147 -182 -171 -215 -194 -275 -33 -87 -30 -174 15 -377
57 -257 57 -267 1 -558 -66 -345 -66 -343 151 -614 152 -191 170 -226 161
-330 -10 -135 -114 -278 -266 -366 -59 -35 -319 -127 -419 -148 -29 -6 -64 -8
-78 -5 -15 4 -24 2 -24 -5 0 -26 134 -2 307 55 136 45 188 67 245 105 212 142
302 341 229 506 -10 22 -75 112 -145 199 -210 262 -211 268 -142 624 25 128
46 245 46 260 0 29 -25 162 -65 346 -29 136 -31 201 -9 277 21 72 42 105 143
227 178 214 217 296 192 407 -27 121 -111 240 -220 314 -80 55 -118 72 -281
131 -149 54 -223 65 -350 54z"/>
<path d="M1210 8131 c-334 -95 -504 -223 -578 -435 -30 -86 -26 -153 13 -223
14 -27 80 -115 147 -198 142 -176 178 -243 178 -330 0 -60 -27 -227 -71 -438
l-23 -107 24 -123 c12 -67 33 -178 46 -247 29 -151 30 -231 5 -285 -10 -22
-82 -121 -159 -220 -162 -206 -187 -254 -179 -351 9 -121 128 -291 259 -370
33 -20 103 -51 156 -69 53 -18 129 -46 167 -62 66 -26 78 -28 215 -27 162 1
489 27 621 49 109 18 638 216 646 241 3 8 -26 11 -89 12 -51 0 -109 5 -128 11
-19 6 -69 11 -111 11 -140 0 -249 47 -330 142 -30 35 -101 115 -159 179 -198
218 -238 271 -271 359 -11 30 -60 116 -109 190 -48 74 -94 154 -101 177 -10
34 -10 78 0 215 9 134 9 209 0 330 -6 86 -9 172 -5 190 10 53 68 166 130 252
32 44 67 103 78 133 32 88 134 223 303 403 45 47 108 116 140 154 93 108 136
122 455 147 155 12 180 16 180 29 0 11 -266 123 -408 171 -220 75 -372 95
-787 104 -163 4 -199 2 -255 -14z m435 -6 c88 -8 186 -15 218 -15 133 0 380
-70 639 -181 70 -29 126 -55 124 -56 -4 -4 -186 -23 -309 -33 -159 -12 -218
-39 -302 -136 -33 -38 -95 -107 -140 -154 -169 -181 -271 -315 -304 -404 -11
-29 -43 -84 -71 -122 -123 -164 -156 -260 -140 -400 13 -116 13 -330 -1 -451
-15 -136 -5 -167 103 -331 50 -75 96 -152 103 -172 35 -100 149 -254 319 -430
34 -36 89 -96 121 -133 42 -49 76 -78 118 -99 69 -34 188 -62 233 -53 17 3 63
-1 103 -10 40 -8 98 -15 129 -15 l57 -1 -115 -45 c-387 -154 -462 -176 -655
-194 -490 -45 -561 -44 -695 6 -36 14 -98 36 -138 50 -125 42 -192 81 -268
159 -138 139 -182 283 -122 400 14 28 86 127 159 220 190 245 196 262 155 480
-14 77 -37 198 -50 268 l-24 129 24 116 c52 248 66 330 67 412 1 75 -2 92 -28
143 -15 32 -87 130 -158 219 -71 89 -138 182 -149 207 -64 149 56 385 252 493
83 47 257 113 346 132 89 19 200 19 399 1z"/>
<path d="M1224 7834 c-54 -19 -120 -76 -144 -125 -88 -171 112 -397 286 -324
60 25 112 73 140 131 22 46 26 64 21 108 -7 69 -36 125 -87 168 -65 56 -136
70 -216 42z m165 -24 c77 -39 121 -114 121 -209 0 -50 -5 -66 -33 -106 -43
-63 -122 -109 -187 -109 -119 0 -239 147 -216 267 10 51 63 117 121 149 62 34
137 37 194 8z"/>
<path d="M1224 5422 c-94 -45 -164 -143 -164 -232 0 -93 72 -190 169 -227 82
-31 195 10 250 90 71 106 69 202 -9 291 -72 81 -171 113 -246 78z m177 -38
c49 -34 95 -93 108 -139 12 -45 -4 -121 -37 -175 -60 -97 -198 -129 -292 -66
-79 52 -126 163 -101 239 17 51 70 117 120 149 40 26 53 29 103 26 42 -3 67
-12 99 -34z"/>
<path d="M5695 8071 c-7 -13 12 -213 29 -304 16 -81 78 -351 101 -442 33 -124
91 -181 227 -221 63 -18 81 -13 94 29 4 12 17 38 30 57 51 78 40 183 -31 278
-23 31 -82 125 -130 207 -101 173 -136 224 -225 329 -62 73 -82 87 -95 67z
m67 -57 c74 -80 132 -164 247 -354 62 -102 126 -207 144 -234 25 -38 32 -61
35 -111 4 -59 1 -69 -37 -139 l-42 -75 -37 13 c-20 8 -50 17 -67 21 -50 11
-99 50 -128 102 -26 48 -102 347 -141 551 -17 91 -32 272 -23 272 4 0 26 -21
49 -46z"/>
<path d="M7036 8030 c-63 -58 -110 -122 -221 -300 -53 -85 -122 -194 -152
-242 -56 -91 -73 -132 -73 -181 0 -36 80 -227 94 -227 27 0 165 54 198 77 46
31 84 106 93 183 4 30 22 109 41 175 19 66 43 167 55 225 25 129 37 314 21
324 -6 4 -31 -12 -56 -34z m41 -102 c-6 -134 -20 -209 -72 -393 -19 -66 -39
-153 -45 -193 -18 -127 -59 -175 -190 -221 -46 -16 -86 -29 -87 -28 -1 2 -20
46 -41 100 -35 88 -38 101 -31 148 6 36 24 76 57 128 27 42 91 144 142 226 51
83 109 173 129 200 36 50 130 155 139 155 2 0 2 -55 -1 -122z"/>
<path d="M11434 7831 c-133 -62 -199 -203 -145 -310 41 -80 148 -150 229 -151
121 0 237 146 217 276 -20 138 -185 240 -301 185z m185 -34 c124 -82 134 -258
21 -361 -71 -64 -165 -66 -249 -5 -122 88 -141 210 -49 313 79 90 189 111 277
53z"/>
<path d="M2545 7713 c-156 -16 -239 -45 -344 -121 -36 -27 -87 -60 -112 -75
-100 -57 -144 -102 -241 -248 -53 -79 -142 -198 -197 -264 -56 -66 -116 -149
-134 -185 -32 -64 -32 -66 -28 -185 5 -146 5 -323 0 -470 l-4 -111 37 -74 c24
-47 77 -122 143 -200 58 -68 124 -154 147 -190 87 -138 113 -172 166 -221 30
-28 80 -63 111 -79 31 -15 79 -47 106 -69 59 -50 169 -104 244 -121 39 -9 91
-11 185 -5 72 4 181 8 241 9 68 1 139 9 185 20 120 30 121 46 6 57 -40 4 -122
23 -182 42 -60 19 -158 42 -219 51 -70 10 -129 25 -161 41 -71 35 -169 141
-326 354 -72 97 -161 217 -198 266 -72 95 -102 151 -169 307 -63 149 -56 228
36 413 77 153 159 268 441 620 166 208 197 229 360 250 102 14 185 34 282 69
25 9 84 22 133 28 49 7 86 17 84 23 -4 12 -127 41 -237 54 -89 11 -304 20
-355 14z m455 -46 l114 -21 -79 -12 c-44 -7 -107 -22 -140 -33 -93 -34 -162
-49 -263 -61 -162 -18 -189 -39 -395 -294 -264 -330 -330 -423 -407 -579 -76
-152 -94 -220 -84 -301 8 -56 99 -278 141 -340 72 -110 438 -589 489 -640 75
-76 147 -109 284 -129 58 -9 157 -32 220 -52 63 -19 142 -38 175 -42 l60 -7
-50 -13 c-27 -8 -126 -18 -220 -23 -93 -5 -204 -12 -245 -16 -135 -11 -270 31
-387 122 -32 25 -85 60 -118 77 -80 43 -162 121 -210 202 -57 94 -139 205
-233 315 -137 160 -175 257 -151 393 16 93 16 268 0 381 -23 151 4 215 173
416 49 58 127 163 175 235 97 147 145 198 234 251 34 21 97 62 140 92 81 56
151 86 239 101 89 16 407 3 538 -22z"/>
<path d="M10130 7710 c-30 -4 -106 -8 -169 -9 -77 -1 -142 -8 -202 -22 -109
-25 -117 -43 -23 -53 37 -4 99 -18 138 -32 102 -35 175 -53 267 -65 95 -12
174 -39 221 -77 74 -59 256 -286 456 -569 98 -138 214 -374 220 -447 5 -66
-26 -173 -92 -312 -65 -136 -135 -235 -422 -594 -176 -220 -198 -235 -364
-256 -60 -7 -162 -30 -240 -54 -74 -23 -163 -44 -198 -47 -201 -18 164 -82
479 -84 191 -1 260 22 459 156 139 94 205 161 299 302 32 48 111 153 175 232
65 80 132 172 149 205 31 60 32 63 28 171 -5 149 -6 346 0 485 l4 115 -39 65
c-47 77 -115 172 -206 290 -37 47 -95 126 -129 177 -72 106 -163 195 -241 237
-30 17 -77 47 -104 69 -61 48 -135 86 -201 103 -65 18 -195 25 -265 14z m232
-21 c78 -17 165 -59 230 -112 31 -25 80 -58 108 -72 74 -37 141 -104 223 -220
39 -55 112 -154 162 -220 106 -139 163 -222 194 -283 24 -48 26 -81 13 -272
-4 -63 -4 -167 1 -230 20 -251 14 -268 -177 -500 -48 -58 -123 -157 -166 -220
-113 -163 -165 -215 -318 -315 -141 -93 -231 -131 -329 -141 -83 -8 -412 12
-518 33 l-90 17 51 7 c28 3 95 20 150 37 145 45 170 50 271 62 159 18 193 42
370 262 333 415 421 552 489 758 44 133 40 170 -36 331 -75 161 -124 236 -305
479 -141 190 -234 303 -289 354 -55 50 -142 85 -259 101 -59 8 -157 31 -218
51 -60 19 -138 39 -172 43 l-62 7 75 18 c50 13 122 20 218 22 79 1 146 5 149
8 11 10 180 6 235 -5z"/>
<path d="M3380 7505 c-58 -7 -150 -14 -206 -14 -125 -1 -454 -66 -562 -110
-147 -61 -243 -145 -352 -306 -37 -55 -113 -158 -169 -230 -157 -201 -201
-302 -201 -456 0 -92 25 -180 74 -262 119 -198 407 -564 496 -631 70 -52 131
-73 398 -140 158 -39 201 -46 397 -60 312 -23 313 -23 371 18 27 19 65 44 85
55 28 16 266 97 446 152 40 13 58 33 41 46 -7 6 -36 18 -65 27 -73 24 -167 88
-198 134 -50 76 -155 430 -155 524 0 13 -9 52 -21 86 -20 58 -20 64 -5 109 8
27 22 87 30 134 16 93 97 383 122 435 39 82 127 153 242 194 88 32 82 45 -38
80 -261 75 -386 121 -435 160 -94 75 -107 77 -295 55z m225 -25 c17 -11 52
-36 79 -55 47 -34 83 -47 406 -146 93 -28 102 -33 80 -42 -131 -51 -221 -116
-264 -190 -24 -42 -120 -357 -131 -432 -3 -22 -16 -80 -27 -128 -19 -77 -20
-93 -9 -130 7 -23 17 -67 22 -97 6 -30 17 -92 25 -137 18 -101 93 -328 128
-387 39 -67 131 -131 239 -166 22 -7 35 -15 30 -20 -4 -4 -114 -41 -243 -83
-202 -66 -242 -82 -285 -117 -70 -57 -101 -63 -252 -50 -71 5 -186 14 -256 20
-84 7 -175 22 -265 45 -317 79 -379 104 -459 182 -122 119 -446 561 -484 661
-36 96 -45 184 -26 277 23 110 70 200 177 333 50 63 126 167 170 232 106 156
190 235 314 295 81 40 124 52 288 86 140 29 228 41 323 45 71 3 159 9 195 13
124 15 192 13 225 -9z"/>
<path d="M2920 6773 c-17 -14 -70 -71 -117 -125 -79 -92 -87 -99 -114 -93 -18
4 -41 1 -60 -9 -40 -20 -58 -20 -98 0 -29 14 -34 14 -55 0 -14 -8 -29 -31 -35
-49 -10 -30 -17 -35 -51 -41 -27 -4 -47 -1 -68 11 -38 22 -59 12 -72 -35 -20
-77 30 -155 70 -107 13 16 85 21 106 7 6 -4 15 -22 19 -40 10 -48 43 -60 94
-37 37 16 43 17 81 1 22 -9 56 -16 74 -16 29 0 41 -9 87 -62 29 -35 78 -89
108 -120 48 -50 60 -58 92 -58 30 0 47 9 87 45 27 24 81 61 120 80 71 36 81
48 112 129 10 28 18 30 60 12 10 -4 33 7 62 29 39 30 50 35 67 26 70 -38 114
35 76 125 -14 34 -16 35 -57 29 -38 -6 -48 -3 -83 25 -31 25 -47 30 -79 28
-40 -3 -41 -3 -61 48 -27 68 -40 82 -86 94 -21 6 -61 29 -90 53 -107 88 -136
95 -189 50z m93 5 c12 -6 44 -30 70 -54 26 -24 71 -52 100 -62 48 -17 54 -24
82 -80 39 -79 45 -85 77 -73 22 8 34 4 79 -25 60 -38 58 -38 94 -24 23 9 27 7
35 -16 17 -43 12 -102 -8 -113 -11 -6 -24 -6 -33 0 -26 16 -54 9 -93 -23 -35
-29 -41 -30 -69 -20 -16 6 -34 9 -39 6 -5 -4 -21 -33 -35 -65 -24 -55 -30 -61
-90 -90 -35 -17 -86 -50 -114 -75 -59 -52 -90 -62 -124 -40 -13 9 -67 65 -121
126 -86 99 -99 110 -128 109 -17 -1 -52 4 -78 12 -37 10 -52 10 -73 1 -51 -23
-72 -16 -87 30 -12 40 -16 43 -62 51 -37 6 -54 4 -72 -8 -30 -19 -50 -19 -58
1 -11 28 -6 90 8 109 13 18 15 18 39 2 27 -18 78 -21 111 -8 11 4 25 23 31 41
17 50 35 57 84 35 39 -17 44 -17 77 -2 19 9 52 17 74 17 37 0 43 5 124 98 128
149 151 166 199 140z"/>
<path d="M2969 6680 c-8 -5 -55 -56 -104 -114 -92 -111 -115 -126 -192 -126
-40 0 -115 -29 -111 -42 6 -17 101 -48 148 -48 25 0 54 -6 65 -14 11 -7 58
-59 105 -115 54 -64 92 -101 105 -101 10 0 35 16 55 35 19 19 58 47 87 63 29
16 66 46 83 70 32 44 93 82 133 82 14 0 30 7 37 15 19 23 -3 43 -57 51 -48 7
-90 36 -112 78 -11 20 -209 177 -223 176 -1 0 -10 -5 -19 -10z m121 -80 c51
-38 101 -82 110 -97 31 -50 66 -74 116 -81 63 -9 65 -25 7 -40 -57 -16 -103
-49 -132 -96 -13 -21 -35 -39 -55 -46 -18 -6 -58 -33 -88 -60 -32 -28 -62 -48
-70 -44 -7 3 -50 50 -96 105 -89 105 -128 134 -171 125 -26 -5 -121 22 -121
35 0 8 28 15 95 24 84 11 101 23 196 136 51 60 97 109 104 109 6 0 53 -31 105
-70z"/>
<path d="M9205 7500 c-22 -11 -62 -35 -88 -54 -36 -27 -106 -54 -283 -111
-258 -84 -272 -93 -179 -125 118 -40 200 -104 235 -184 34 -77 108 -331 120
-411 6 -44 21 -112 32 -151 19 -67 20 -74 5 -120 -9 -27 -23 -89 -32 -139 -22
-123 -101 -391 -130 -441 -46 -80 -117 -130 -268 -193 -16 -6 -27 -17 -25 -23
3 -7 40 -23 84 -36 355 -106 398 -123 513 -207 41 -30 69 -31 266 -10 77 8
172 15 212 15 89 0 423 67 511 103 139 56 246 143 337 273 144 206 195 274
243 328 63 71 126 196 143 284 29 153 -20 333 -127 463 -24 30 -77 104 -118
164 -95 141 -242 318 -309 373 -66 54 -108 69 -358 132 -194 49 -217 52 -459
71 -307 23 -276 23 -325 -1z m345 -16 c210 -15 239 -20 437 -69 268 -67 310
-86 400 -178 90 -92 201 -232 253 -316 21 -37 64 -95 95 -131 74 -86 127 -194
150 -303 17 -83 17 -91 1 -174 -22 -112 -70 -211 -141 -292 -31 -36 -102 -128
-156 -205 -123 -174 -165 -226 -226 -277 -110 -92 -190 -124 -438 -176 -125
-26 -211 -37 -325 -43 -85 -5 -196 -14 -247 -21 -110 -14 -128 -10 -184 37
-63 53 -140 86 -349 149 -102 30 -192 58 -200 61 -9 3 9 15 48 30 104 39 196
115 236 194 30 58 111 340 130 450 8 47 19 98 25 113 15 39 14 89 -3 134 -8
21 -20 76 -26 122 -13 94 -65 284 -111 403 -38 97 -93 156 -189 202 -38 18
-79 36 -91 39 -27 7 -18 23 18 31 62 15 399 129 433 146 21 11 51 30 67 44 62
52 73 53 393 30z"/>
<path d="M9711 6740 c-38 -32 -80 -62 -94 -65 -40 -10 -89 -58 -107 -105 -17
-44 -19 -45 -62 -45 -32 0 -53 -8 -79 -28 -32 -24 -39 -25 -66 -15 -16 6 -38
8 -47 5 -38 -15 -46 -118 -11 -157 13 -15 22 -16 50 -7 30 9 37 7 74 -22 41
-33 60 -38 98 -26 18 6 25 0 42 -34 12 -22 21 -47 21 -55 0 -24 28 -45 75 -57
27 -7 63 -28 97 -58 64 -58 88 -71 125 -71 31 0 69 35 193 178 56 65 66 72 90
67 16 -3 45 1 68 10 39 16 44 16 87 0 43 -17 46 -17 65 0 11 10 22 33 26 51 6
32 8 34 49 34 23 0 59 -7 78 -15 34 -14 37 -14 51 7 21 30 21 121 0 142 -20
20 -38 20 -54 1 -10 -12 -28 -15 -63 -13 -49 3 -51 4 -64 45 -17 51 -42 61
-94 38 -30 -14 -44 -15 -66 -7 -15 6 -44 14 -63 17 -19 4 -42 9 -51 11 -9 2
-47 42 -85 87 -108 129 -129 147 -174 147 -34 0 -50 -9 -109 -60z m151 32 c15
-9 66 -63 113 -119 82 -97 87 -102 133 -108 26 -4 62 -12 80 -18 24 -8 40 -8
65 1 18 7 43 12 55 12 20 0 24 -6 36 -62 5 -23 12 -27 55 -33 39 -5 57 -3 80
11 41 24 56 9 55 -57 -1 -60 -15 -79 -45 -61 -11 7 -42 16 -68 19 -53 6 -81
-11 -81 -51 0 -41 -25 -52 -76 -33 -35 13 -50 14 -72 5 -15 -6 -49 -14 -76
-17 -48 -6 -52 -9 -140 -110 -146 -167 -152 -168 -258 -76 -36 32 -80 60 -103
67 -49 14 -75 35 -75 60 0 26 -27 75 -47 87 -11 5 -26 5 -42 0 -20 -8 -33 -4
-73 25 -43 29 -54 33 -80 25 -39 -11 -45 -7 -57 37 -16 59 13 113 50 93 29
-15 53 -10 90 17 26 19 44 24 74 22 40 -3 40 -3 70 57 26 51 37 64 81 85 28
14 75 46 105 71 88 75 106 81 151 51z"/>
<path d="M9795 6677 c-36 -20 -190 -150 -223 -188 -22 -25 -48 -43 -75 -50
-84 -24 -85 -57 -3 -78 41 -10 106 -66 106 -91 0 -5 23 -21 52 -36 28 -14 75
-48 103 -75 29 -27 56 -49 62 -49 6 0 46 41 89 92 43 50 90 102 103 115 25 24
77 42 126 44 39 1 98 22 103 37 6 19 -84 52 -143 52 -62 0 -70 6 -183 142 -40
47 -78 88 -85 91 -7 3 -22 0 -32 -6z m124 -116 c96 -113 130 -137 179 -126 18
4 46 -1 78 -14 l49 -19 -27 -11 c-15 -5 -51 -13 -80 -17 -73 -9 -110 -28 -149
-77 -58 -73 -144 -167 -153 -167 -4 0 -32 22 -62 49 -29 27 -71 57 -92 67 -21
11 -50 35 -65 56 -31 44 -66 68 -109 77 -48 10 -46 29 6 42 33 8 57 24 87 56
49 54 218 193 234 193 6 0 53 -49 104 -109z"/>
<path d="M493 7443 c-28 -40 -257 -460 -277 -506 -8 -21 -32 -111 -52 -200
-33 -144 -36 -177 -36 -297 1 -205 39 -457 85 -564 49 -114 292 -546 306 -544
8 2 30 29 50 60 20 32 70 99 112 150 121 150 120 148 136 266 14 107 12 201
-8 275 -5 20 -14 37 -19 37 -6 0 -30 -15 -54 -34 -74 -56 -120 -57 -233 -4
-132 62 -178 153 -172 342 4 97 8 118 32 169 30 60 74 98 152 132 98 42 158
38 219 -15 18 -17 40 -30 49 -30 37 0 54 210 28 341 -16 83 -44 132 -146 255
-44 53 -91 117 -105 142 -14 25 -30 47 -36 49 -7 2 -21 -9 -31 -24z m49 -25
c8 -18 59 -87 113 -153 114 -140 120 -152 140 -245 24 -116 14 -320 -16 -320
-6 0 -28 14 -49 31 -74 59 -180 45 -304 -41 -83 -56 -124 -179 -113 -336 10
-147 68 -232 196 -292 96 -44 158 -42 228 7 35 25 48 30 54 19 25 -41 23 -287
-4 -365 -14 -42 -66 -114 -170 -236 -32 -38 -66 -84 -75 -103 -9 -19 -20 -33
-25 -31 -17 5 -287 511 -306 572 -56 178 -85 525 -57 683 30 174 67 304 108
385 80 159 247 457 257 457 4 0 14 -15 23 -32z"/>
<path d="M12264 7458 c-5 -7 -17 -29 -27 -48 -10 -19 -61 -87 -114 -150 -53
-63 -104 -133 -114 -155 -26 -61 -43 -235 -29 -320 19 -120 27 -127 86 -75 41
36 99 53 140 41 64 -19 144 -61 183 -97 67 -60 74 -81 79 -241 4 -138 4 -144
-22 -197 -29 -60 -66 -92 -163 -142 -101 -53 -144 -46 -259 41 -23 17 -32 -6
-43 -113 -21 -199 8 -296 139 -461 49 -62 102 -135 117 -162 16 -27 35 -49 44
-49 11 0 56 72 137 218 163 295 170 309 198 424 52 209 58 256 56 428 -1 141
-5 187 -32 320 -28 140 -37 167 -93 280 -107 213 -250 470 -262 470 -7 0 -17
-6 -21 -12z m114 -168 c186 -342 211 -400 244 -555 35 -166 47 -381 29 -515
-12 -89 -61 -304 -80 -355 -17 -43 -283 -525 -290 -525 -3 0 -17 21 -30 46
-14 25 -65 96 -114 157 -49 60 -97 129 -107 151 -40 94 -51 227 -29 353 l11
63 41 -35 c74 -63 134 -67 237 -15 95 48 136 84 166 147 27 55 29 65 29 188 0
157 -14 203 -81 265 -55 51 -179 110 -229 110 -40 0 -101 -27 -129 -59 -11
-12 -22 -21 -26 -21 -12 0 -30 110 -30 184 1 39 7 106 14 148 16 86 30 110
151 253 42 50 87 112 101 138 14 27 27 47 29 45 1 -1 43 -77 93 -168z"/>
<path d="M4310 7126 c-282 -60 -334 -110 -414 -391 -14 -49 -37 -143 -51 -208
l-27 -118 25 -127 c31 -158 99 -376 137 -436 16 -25 48 -59 71 -76 75 -54 318
-120 391 -106 21 4 116 58 225 129 103 68 240 151 303 184 291 153 303 161
371 233 81 85 130 109 219 110 52 0 78 -6 129 -30 49 -23 67 -28 77 -19 19 16
17 61 -3 98 -17 30 -17 32 0 62 21 38 22 82 1 99 -13 11 -27 7 -88 -24 -65
-33 -79 -37 -117 -31 -74 12 -144 50 -221 121 -52 48 -106 85 -179 123 -216
112 -379 207 -534 312 -88 59 -171 110 -185 113 -14 2 -72 -6 -130 -18z m295
-101 c146 -99 400 -247 575 -335 52 -26 108 -65 154 -109 85 -79 148 -111 228
-118 50 -5 63 -2 112 26 31 17 62 31 70 31 23 0 29 -36 12 -69 -20 -38 -20
-72 -1 -97 17 -22 19 -43 6 -63 -8 -13 -19 -10 -68 15 -49 24 -70 29 -133 29
-64 0 -83 -4 -126 -28 -28 -16 -74 -55 -103 -88 -31 -35 -74 -70 -104 -86 -29
-14 -94 -50 -144 -80 -51 -30 -114 -63 -140 -75 -54 -24 -137 -75 -338 -207
-133 -88 -139 -91 -195 -91 -78 0 -241 44 -315 84 -85 46 -115 92 -165 243
-43 133 -90 339 -90 398 0 60 64 321 111 449 34 95 87 164 149 196 50 25 260
77 323 79 21 1 71 -27 182 -104z"/>
<path d="M4620 6629 c-73 -9 -106 -29 -136 -82 l-20 -37 -48 49 c-54 55 -86
68 -127 51 -54 -23 -98 -170 -80 -267 32 -167 98 -205 195 -113 29 28 56 50
59 50 3 0 13 -15 22 -34 23 -48 53 -64 141 -77 64 -9 85 -8 125 5 26 9 67 16
91 16 46 0 85 17 143 64 31 25 48 30 127 37 154 14 178 29 178 109 0 79 -22
93 -176 108 -86 9 -144 30 -144 54 0 20 -90 50 -129 43 -29 -5 -46 -1 -72 14
-36 22 -48 23 -149 10z m146 -24 c12 -9 42 -14 81 -15 55 0 65 -3 104 -35 61
-52 69 -54 177 -65 54 -5 106 -12 115 -16 9 -3 22 -24 29 -46 24 -81 -16 -116
-137 -117 -84 -1 -130 -17 -176 -58 -34 -31 -49 -37 -97 -41 -31 -2 -76 -11
-100 -19 -32 -12 -60 -14 -119 -9 -95 9 -124 24 -148 75 -10 23 -23 41 -29 41
-7 0 -34 -22 -61 -50 -81 -82 -137 -66 -169 49 -20 72 -20 133 -1 198 35 118
88 135 167 53 26 -27 54 -50 62 -50 7 0 19 13 26 29 20 50 54 73 117 81 95 12
138 11 159 -5z"/>
<path d="M4643 6498 c-18 -5 -44 -24 -59 -43 -14 -19 -32 -35 -40 -35 -47 0
19 -82 93 -115 29 -14 37 -13 82 4 40 16 56 18 87 10 26 -8 44 -8 61 0 33 15
104 73 101 82 -2 4 -29 28 -61 52 l-59 45 -42 -15 c-39 -15 -45 -15 -82 2 -21
10 -41 19 -44 20 -3 1 -19 -2 -37 -7z m71 -23 c23 -18 61 -19 104 -4 29 10 35
8 74 -25 23 -20 45 -36 50 -36 18 0 6 -17 -34 -49 -41 -31 -46 -32 -103 -27
-44 5 -68 2 -89 -9 -45 -24 -70 -18 -124 27 l-49 42 48 48 c52 52 86 61 123
33z"/>
<path d="M4294 6445 c-13 -20 -14 -30 -4 -59 13 -40 26 -48 55 -33 42 21 46
57 10 92 -30 31 -40 31 -61 0z m60 -17 c11 -15 12 -26 5 -40 -24 -44 -59 -30
-59 23 0 44 29 54 54 17z"/>
<path d="M8350 7143 c-8 -3 -96 -58 -195 -123 -99 -65 -234 -146 -300 -180
-66 -35 -131 -71 -145 -80 -14 -10 -58 -34 -98 -54 -47 -24 -103 -64 -155
-113 -147 -138 -217 -148 -373 -58 -60 36 -82 -9 -48 -96 16 -39 16 -42 -6
-90 -19 -40 -21 -53 -12 -74 15 -32 30 -31 78 1 121 83 238 60 364 -73 61 -63
81 -76 290 -183 147 -75 288 -157 408 -237 210 -140 197 -136 365 -102 268 54
324 128 422 557 l37 162 -27 127 c-35 171 -108 390 -145 442 -57 79 -145 125
-291 154 -103 21 -151 27 -169 20z m163 -34 c167 -33 255 -85 301 -178 37 -73
102 -286 127 -413 26 -132 26 -136 -37 -385 -60 -241 -114 -337 -217 -388 -61
-29 -289 -79 -325 -70 -13 3 -84 46 -157 95 -192 128 -239 156 -470 276 -188
97 -214 114 -269 172 -76 80 -129 112 -199 119 -61 6 -113 -7 -169 -43 -21
-13 -44 -24 -53 -24 -19 0 -19 46 0 80 16 28 19 73 6 98 -4 9 -11 32 -14 50
-8 42 8 42 82 0 47 -28 66 -33 121 -33 85 0 121 18 226 115 45 43 104 88 131
101 26 12 66 34 88 48 22 13 101 57 175 96 74 40 214 124 310 188 133 88 183
116 208 117 19 0 80 -9 135 -21z"/>
<path d="M8041 6623 c-16 -10 -46 -17 -87 -18 -36 -1 -70 -7 -81 -16 -11 -8
-38 -28 -61 -45 -36 -28 -51 -32 -129 -37 -143 -10 -173 -27 -173 -104 0 -74
75 -113 217 -113 32 0 51 -8 85 -35 60 -49 105 -68 147 -62 25 3 46 -2 69 -15
30 -19 41 -19 128 -10 105 10 134 27 161 91 l14 34 47 -45 c79 -77 115 -86
155 -38 64 76 75 232 25 342 -41 89 -84 90 -177 3 l-48 -45 -12 29 c-24 57
-61 80 -142 91 -101 13 -111 12 -138 -7z m146 -11 c69 -9 98 -28 120 -79 17
-42 31 -41 74 3 90 93 132 92 170 -3 41 -104 27 -253 -28 -315 -29 -33 -70
-22 -127 32 -29 28 -58 50 -64 50 -7 0 -18 -15 -26 -33 -19 -46 -61 -77 -105
-77 -20 0 -56 -5 -80 -11 -37 -8 -48 -7 -78 11 -22 13 -52 20 -84 20 -52 0
-95 17 -119 45 -26 31 -76 48 -164 56 -96 8 -134 26 -150 71 -12 34 0 75 24
88 11 6 65 15 119 19 97 9 145 24 171 56 24 29 68 45 122 45 37 0 62 6 83 20
19 14 39 19 55 15 14 -3 53 -9 87 -13z"/>
<path d="M8085 6488 c-38 -20 -42 -20 -85 -5 -50 18 -51 18 -125 -47 l-40 -35
50 -45 c53 -48 70 -53 122 -34 27 10 38 9 68 -5 20 -9 47 -17 60 -17 33 0 74
20 80 39 3 9 19 25 36 35 16 10 29 21 27 25 -9 20 -107 100 -128 105 -16 3
-40 -3 -65 -16z m123 -40 c26 -24 49 -44 52 -46 3 -2 -2 -7 -10 -12 -8 -5 -32
-24 -52 -44 -40 -39 -71 -45 -106 -20 -23 16 -77 16 -127 0 -14 -4 -32 5 -64
35 l-45 40 45 40 c34 30 50 38 69 33 67 -15 89 -15 116 0 46 24 71 19 122 -26z"/>
<path d="M8437 6432 c-22 -24 -21 -45 1 -65 27 -25 60 -21 74 8 25 56 -35 101
-75 57z m61 -28 c4 -42 -25 -55 -51 -23 -17 21 -17 23 0 41 24 27 47 19 51
-18z"/>
<path d="M4716 7101 c-9 -14 132 -141 231 -208 48 -33 140 -90 203 -128 63
-37 144 -87 180 -110 72 -47 118 -65 163 -65 30 0 192 63 215 84 10 10 7 26
-12 82 -32 95 -49 126 -90 161 -38 34 -76 48 -154 58 -30 3 -131 26 -225 50
-104 27 -236 53 -332 65 -186 23 -172 22 -179 11z m187 -27 c74 -9 216 -37
322 -64 105 -26 216 -51 248 -54 106 -11 153 -53 197 -172 17 -43 30 -84 30
-90 0 -21 -141 -77 -205 -81 -55 -4 -65 -1 -115 31 -30 19 -94 57 -141 85
-237 138 -391 244 -468 325 -41 43 -48 42 132 20z"/>
<path d="M7920 7102 c-71 -9 -385 -76 -450 -97 -41 -12 -95 -26 -120 -30 -86
-13 -138 -35 -173 -74 -38 -43 -79 -138 -81 -190 -1 -33 2 -36 74 -74 64 -34
83 -39 140 -39 78 0 107 10 157 55 21 19 103 73 183 120 80 47 168 99 195 116
62 37 240 188 240 204 0 12 -103 17 -165 9z m53 -97 c-54 -46 -124 -99 -156
-117 -166 -93 -325 -193 -352 -218 -73 -71 -164 -78 -279 -24 -42 20 -79 40
-82 45 -8 14 48 160 74 191 33 39 84 63 164 77 37 6 98 21 135 32 124 39 434
98 516 98 l78 1 -98 -85z"/>
<path d="M6219 6909 c-14 -3 -36 -12 -49 -19 -41 -22 -261 -249 -276 -285 -18
-45 -19 -366 -1 -407 16 -36 247 -272 289 -295 29 -16 58 -18 223 -18 173 0
193 2 221 20 38 25 256 251 273 283 16 31 18 385 2 425 -12 31 -228 253 -275
283 -26 17 -52 19 -206 20 -97 0 -187 -3 -201 -7z m384 -18 c29 -11 251 -231
278 -275 17 -27 19 -52 19 -208 0 -99 -5 -189 -10 -204 -13 -34 -231 -262
-274 -286 -26 -15 -58 -18 -209 -18 -129 0 -186 4 -210 14 -18 7 -92 74 -164
148 l-133 135 -2 159 c-2 198 0 220 19 257 21 42 239 256 277 273 36 16 369
20 409 5z"/>
<path d="M560 6685 c-16 -19 1 -126 30 -191 32 -74 33 -96 6 -165 -14 -35 -32
-93 -41 -129 -17 -64 -16 -65 5 -82 90 -73 183 88 121 210 -26 52 -27 102 -1
152 31 61 21 159 -21 201 -23 23 -81 25 -99 4z m97 -22 c7 -9 18 -40 24 -69
11 -50 10 -57 -15 -115 -31 -67 -30 -103 5 -168 10 -20 19 -51 19 -69 0 -37
-25 -102 -43 -114 -22 -14 -77 -9 -84 8 -7 18 22 131 48 189 24 52 24 107 0
153 -11 21 -26 71 -35 112 -14 70 -14 76 2 88 20 15 62 8 79 -15z"/>
<path d="M12149 6685 c-50 -28 -65 -136 -29 -210 25 -51 25 -99 0 -154 -36
-79 -19 -188 35 -213 17 -8 37 -9 63 -2 45 11 46 23 8 144 -54 168 -52 149
-22 223 38 95 62 195 49 208 -17 17 -77 20 -104 4z m91 -28 c0 -30 -34 -146
-54 -185 -28 -54 -22 -87 53 -314 11 -34 7 -38 -45 -38 -52 0 -70 22 -80 92
-5 34 -1 56 15 93 27 61 27 126 0 191 -17 40 -20 62 -15 98 10 61 34 86 86 86
35 0 40 -3 40 -23z"/>
<path d="M12322 6588 c-17 -17 -15 -83 3 -98 20 -16 62 -5 70 20 7 23 -18 75
-40 84 -21 8 -19 8 -33 -6z m40 -25 c10 -9 18 -27 18 -40 0 -18 -5 -23 -24
-23 -27 0 -39 21 -30 56 7 28 12 29 36 7z"/>
<path d="M421 6566 c-30 -32 -25 -67 11 -80 36 -13 59 14 55 64 -3 44 -32 52
-66 16z m52 -8 c8 -29 -18 -69 -38 -62 -20 8 -19 43 2 66 21 24 29 23 36 -4z"/>
<path d="M430 6302 c-17 -14 -20 -22 -12 -43 15 -38 38 -54 57 -39 27 22 14
100 -16 100 -4 0 -17 -8 -29 -18z m45 -21 c6 -21 -3 -51 -16 -51 -13 0 -31 40
-25 56 8 20 34 17 41 -5z"/>
<path d="M12320 6301 c-15 -29 -12 -77 6 -92 14 -11 20 -9 45 19 34 38 37 67
10 82 -29 15 -49 12 -61 -9z m60 -23 c0 -21 -26 -58 -40 -58 -13 0 -20 30 -14
56 8 33 54 35 54 2z"/>
<path d="M5424 6198 c-17 -5 -53 -27 -80 -49 -27 -21 -103 -69 -169 -108 -280
-163 -519 -353 -442 -351 151 4 272 23 468 73 118 30 239 58 269 62 30 4 71
16 91 26 51 26 104 91 119 147 7 26 19 59 26 74 8 15 11 34 8 43 -10 25 -151
86 -209 90 -27 2 -64 -1 -81 -7z m196 -42 c87 -39 87 -40 47 -149 -40 -109
-95 -153 -205 -168 -37 -4 -161 -33 -277 -64 -181 -48 -227 -56 -335 -62
l-125 -6 30 25 c104 87 263 198 391 273 82 48 160 98 174 111 90 83 178 94
300 40z"/>
<path d="M7247 6199 c-43 -10 -114 -44 -139 -67 -24 -20 -23 -49 6 -128 39
-107 102 -159 213 -175 68 -10 295 -64 413 -99 73 -22 329 -44 344 -29 10 9
-95 111 -173 167 -25 18 -116 76 -201 129 -85 53 -190 118 -232 145 -100 65
-148 77 -231 57z m165 -37 c266 -155 501 -309 579 -379 91 -84 98 -79 -87 -63
-70 5 -151 20 -215 39 -122 35 -293 76 -364 86 -107 15 -167 70 -204 187 l-23
72 28 23 c44 35 123 62 184 62 42 0 66 -6 102 -27z"/>
<path d="M5836 6028 c-7 -13 -17 -39 -20 -59 -20 -112 -133 -179 -303 -179
-70 0 -103 -7 -220 -44 -204 -65 -418 -121 -598 -156 -88 -18 -174 -38 -192
-45 -23 -10 -50 -42 -102 -121 -86 -131 -116 -215 -108 -306 7 -75 75 -217
195 -406 l85 -133 111 -73 c229 -150 361 -209 471 -210 84 0 131 19 281 117
119 76 105 48 169 337 25 113 63 264 84 335 85 281 93 316 101 445 7 133 18
169 69 223 32 35 70 56 129 71 25 6 50 19 56 29 9 15 5 23 -22 48 -18 16 -41
29 -52 29 -21 0 -50 35 -50 60 0 19 -40 60 -58 60 -6 0 -18 -10 -26 -22z m74
-53 c19 -38 33 -53 58 -61 40 -13 66 -38 59 -57 -3 -8 -24 -17 -47 -21 -59 -9
-92 -28 -137 -80 -51 -58 -65 -105 -73 -246 -5 -91 -15 -145 -48 -260 -22 -80
-48 -164 -56 -187 -8 -24 -40 -154 -71 -290 -31 -137 -58 -255 -61 -264 -5
-18 -156 -121 -243 -166 -70 -35 -158 -42 -233 -18 -75 25 -240 109 -323 164
-38 26 -88 59 -111 73 -30 19 -61 57 -116 145 -98 155 -186 326 -197 385 -11
63 2 137 38 214 35 74 127 211 150 223 9 5 99 26 201 46 181 36 490 118 640
170 54 19 95 26 145 26 178 -1 320 70 340 171 20 101 46 111 85 33z"/>
<path d="M5495 5629 c-28 -17 -66 -46 -85 -64 -42 -41 -97 -65 -145 -65 -44 0
-80 -18 -119 -59 -16 -16 -42 -33 -58 -36 -33 -8 -144 -130 -154 -170 -6 -25
-2 -59 11 -102 7 -22 5 -23 -59 -23 -119 0 -153 -37 -121 -129 38 -103 113
-176 217 -212 93 -31 128 2 128 124 0 57 1 59 23 53 56 -17 92 -17 118 1 119
82 149 112 149 150 0 11 16 35 36 54 44 41 64 85 64 139 0 49 11 73 55 120 89
95 106 157 58 209 -41 44 -62 46 -118 10z m102 -11 c46 -51 35 -101 -41 -185
-53 -59 -76 -107 -76 -158 0 -44 -18 -80 -58 -118 -17 -16 -33 -44 -36 -63 -4
-20 -17 -41 -32 -51 -14 -10 -46 -35 -72 -57 -46 -38 -46 -38 -113 -32 -78 8
-78 8 -77 -87 0 -96 -35 -116 -128 -76 -74 31 -129 82 -163 151 -34 67 -39
109 -16 131 18 19 85 31 122 23 17 -4 36 -1 46 6 17 13 17 16 2 52 -23 54 -13
84 53 161 41 48 68 71 97 81 22 7 48 25 59 40 23 32 73 54 120 54 49 0 80 14
128 58 60 54 119 92 144 92 11 0 30 -10 41 -22z"/>
<path d="M5292 5383 c-37 -4 -47 -10 -75 -48 -18 -25 -50 -53 -74 -64 -53 -26
-59 -39 -65 -128 l-5 -71 66 0 c86 1 114 16 135 73 14 34 28 51 62 71 l44 26
0 58 c0 32 3 65 6 74 6 17 2 17 -94 9z m78 -73 c0 -57 -2 -60 -31 -76 -41 -21
-79 -62 -79 -85 0 -39 -35 -59 -104 -59 l-64 0 0 53 c-1 75 4 83 58 113 27 15
60 44 74 65 26 38 42 45 109 48 l37 1 0 -60z"/>
<path d="M4886 4974 c-19 -19 -19 -18 -1 -53 20 -39 68 -56 89 -32 9 10 16 29
16 44 0 47 -70 75 -104 41z m79 -44 c0 -25 -5 -36 -17 -38 -22 -4 -58 32 -58
59 0 17 5 20 38 17 35 -3 37 -5 37 -38z"/>
<path d="M6903 6028 c-11 -13 -24 -34 -28 -48 -11 -37 -25 -50 -52 -50 -29 0
-76 -44 -71 -68 3 -16 11 -20 95 -42 23 -6 56 -22 73 -37 54 -45 70 -92 86
-247 11 -104 24 -168 49 -246 30 -93 55 -177 109 -370 9 -30 31 -135 50 -233
23 -120 40 -185 52 -198 28 -31 236 -158 296 -181 70 -26 146 -21 220 15 100
49 423 237 445 260 21 22 199 320 249 418 21 43 25 64 25 128 -1 98 -20 166
-69 249 -43 72 -113 156 -142 172 -10 5 -115 30 -234 55 -119 25 -255 57 -303
71 -375 111 -386 114 -475 114 -64 0 -103 6 -145 21 -74 28 -139 92 -148 146
-7 49 -27 87 -46 91 -8 1 -24 -8 -36 -20z m59 -45 c14 -85 58 -136 153 -179
51 -24 74 -28 161 -30 105 -2 104 -1 414 -94 133 -40 159 -46 389 -96 236 -50
229 -46 322 -188 67 -103 94 -196 87 -296 -4 -53 -15 -77 -112 -247 -161 -279
-140 -256 -311 -356 -83 -48 -195 -110 -249 -138 -88 -46 -106 -51 -161 -51
-74 0 -125 22 -276 120 -124 81 -114 62 -159 302 -30 156 -80 343 -155 580
-23 74 -36 140 -44 225 -6 66 -15 137 -21 158 -22 74 -99 137 -187 152 -24 4
-45 11 -48 16 -9 13 32 49 55 49 25 0 70 43 70 66 0 24 30 55 49 52 9 -2 18
-19 23 -45z"/>
<path d="M7199 5635 c-15 -8 -34 -30 -43 -50 -22 -45 -19 -50 117 -219 11 -13
20 -47 24 -82 6 -61 32 -117 63 -134 9 -5 29 -34 44 -65 28 -56 81 -107 145
-140 25 -13 47 -16 83 -11 26 4 49 3 49 -1 1 -4 3 -34 4 -66 2 -72 34 -112 88
-110 109 3 267 164 267 271 0 65 -25 82 -121 82 -73 0 -80 2 -74 18 34 81 29
102 -46 197 -52 67 -75 85 -105 85 -9 0 -33 18 -54 39 -38 39 -51 44 -142 56
-39 5 -62 18 -133 76 -91 73 -116 81 -166 54z m164 -71 c74 -64 80 -67 146
-74 75 -8 94 -18 135 -67 20 -23 36 -33 56 -33 22 0 37 -10 57 -36 15 -20 43
-55 62 -77 34 -43 36 -60 15 -149 l-6 -28 76 0 c69 0 80 -3 102 -26 22 -21 25
-31 19 -62 -14 -80 -102 -183 -188 -223 -91 -41 -129 -16 -137 90 l-5 66 -70
5 c-58 4 -78 11 -117 38 -51 35 -78 68 -100 122 -9 20 -26 43 -40 52 -33 22
-58 76 -58 128 0 51 -6 62 -86 161 -35 44 -64 89 -64 101 0 36 48 78 89 78 30
0 50 -12 114 -66z"/>
<path d="M7414 5376 c-3 -7 -2 -40 3 -72 7 -53 11 -60 52 -88 28 -20 49 -44
56 -65 6 -18 24 -44 39 -58 24 -21 37 -23 90 -21 60 3 61 3 62 33 0 17 4 43 8
58 11 46 -18 93 -67 110 -30 10 -50 25 -70 55 -20 29 -39 44 -65 52 -52 14
-102 13 -108 -4z m82 -6 c22 0 40 -7 52 -20 56 -66 82 -90 99 -90 38 0 58 -37
58 -106 l0 -64 -32 -6 c-61 -11 -133 25 -133 66 0 23 -36 67 -69 84 -21 11
-29 26 -39 71 -12 62 -9 80 15 71 8 -3 30 -6 49 -6z"/>
<path d="M7827 4972 c-21 -23 -22 -61 -3 -87 14 -19 16 -19 50 -3 38 19 57 59
39 87 -15 24 -66 26 -86 3z m81 -24 c4 -21 -32 -58 -57 -58 -22 0 -31 27 -20
59 7 18 15 22 41 19 21 -2 34 -9 36 -20z"/>
<path d="M6446 5774 c-19 -10 -39 -14 -60 -9 -81 17 -102 17 -115 1 -12 -14
-9 -27 18 -87 57 -131 39 -209 -77 -332 -37 -39 -84 -101 -104 -137 -19 -36
-75 -139 -123 -230 -49 -91 -138 -239 -198 -328 -60 -90 -115 -178 -122 -196
-13 -30 -11 -47 11 -157 36 -179 82 -265 169 -319 44 -27 246 -95 360 -121
110 -25 269 -27 375 -4 123 25 347 104 383 133 85 71 129 153 159 299 24 118
20 169 -18 228 -194 300 -244 382 -277 449 -84 172 -184 327 -275 430 -102
116 -111 201 -35 308 28 39 34 54 26 67 -14 22 -61 24 -97 5z m-90 -19 c37
-19 65 -19 90 0 23 17 84 20 84 3 0 -6 -17 -36 -37 -66 -34 -49 -38 -61 -37
-116 0 -74 22 -120 95 -203 72 -81 144 -193 236 -368 70 -132 182 -315 296
-485 32 -47 37 -63 37 -112 0 -69 -21 -173 -51 -254 -16 -44 -38 -75 -83 -119
l-61 -61 -165 -51 c-245 -77 -347 -88 -511 -57 -120 22 -356 101 -406 136 -83
56 -129 154 -160 338 l-17 98 120 184 c112 170 242 393 327 564 22 43 64 102
106 147 90 98 115 144 115 222 1 46 -6 75 -28 122 -15 34 -26 69 -23 78 8 19
37 19 73 0z"/>
<path d="M6334 5267 c-24 -21 -28 -34 -40 -137 -7 -63 -13 -116 -14 -117 0 -1
-18 -22 -39 -47 -29 -33 -42 -59 -47 -91 -3 -25 -4 -48 -1 -51 3 -3 -4 -32
-15 -64 -17 -53 -18 -68 -9 -132 13 -83 32 -116 84 -141 21 -9 37 -19 37 -21
0 -1 -25 -28 -55 -58 -61 -61 -68 -88 -35 -131 69 -87 331 -87 400 0 32 41 25
68 -32 130 -49 52 -52 56 -34 67 11 6 34 23 52 39 29 24 33 36 45 112 11 79
11 88 -9 141 -12 31 -19 60 -16 65 14 23 -10 92 -48 141 -37 46 -41 58 -49
132 -13 123 -18 145 -40 167 -28 28 -100 26 -135 -4z m118 1 c21 -17 38 -80
38 -143 0 -72 15 -116 57 -164 29 -35 37 -53 40 -94 2 -29 11 -75 20 -102 12
-39 14 -69 9 -128 -9 -86 -27 -119 -82 -142 -19 -8 -34 -20 -34 -27 0 -8 23
-36 50 -63 44 -43 50 -55 48 -84 -4 -44 -34 -66 -117 -87 -80 -20 -151 -12
-223 24 -46 23 -53 31 -56 60 -3 29 4 41 52 89 30 31 53 60 50 65 -3 4 -23 17
-45 28 -53 28 -67 53 -74 140 -5 56 -3 86 9 119 9 24 16 63 16 88 0 46 17 90
45 113 31 25 45 69 55 165 6 53 15 105 21 116 19 36 90 51 121 27z"/>
<path d="M6350 4913 c-37 -52 -40 -61 -34 -98 10 -54 8 -72 -11 -111 -14 -30
-14 -37 -1 -66 8 -18 34 -53 57 -78 l41 -45 17 24 c9 14 22 30 29 35 45 36 52
48 52 84 0 22 -7 53 -15 69 -13 25 -13 39 -4 81 l12 51 -42 55 c-23 31 -46 56
-51 56 -5 0 -27 -26 -50 -57z m97 -18 c22 -31 31 -54 27 -64 -16 -36 -16 -92
0 -116 9 -13 16 -33 16 -44 0 -31 -21 -70 -42 -76 -10 -4 -24 -17 -31 -31
l-13 -25 -47 51 c-51 54 -56 74 -31 122 12 24 15 45 10 90 -7 55 -5 61 25 103
18 25 37 44 43 42 5 -2 25 -25 43 -52z"/>
<path d="M6374 4372 c-47 -31 -27 -96 28 -90 18 2 37 12 45 24 12 18 11 24 -8
47 -20 27 -44 34 -65 19z m48 -19 c23 -21 23 -40 -2 -53 -22 -12 -60 2 -60 22
0 12 29 48 38 48 3 0 14 -7 24 -17z"/>
<path d="M6037 5701 c-70 -18 -119 -50 -170 -113 -21 -26 -31 -53 -39 -104 -5
-38 -25 -123 -44 -189 -62 -219 -108 -545 -80 -572 12 -12 133 122 203 224 33
48 99 153 147 233 48 80 101 167 119 194 29 44 32 57 31 119 -1 58 -7 80 -39
142 -20 41 -42 76 -49 78 -6 3 -42 -3 -79 -12z m99 -43 c68 -107 72 -212 12
-295 -19 -27 -63 -98 -98 -158 -98 -171 -205 -327 -275 -402 l-64 -68 -1 60
c0 112 48 363 106 548 13 43 24 96 24 118 0 104 87 200 207 228 59 14 61 13
89 -31z"/>
<path d="M6674 5709 c-5 -8 -24 -45 -43 -84 -29 -59 -35 -81 -35 -137 0 -72
-7 -56 107 -228 26 -39 75 -120 109 -178 77 -136 129 -209 211 -297 85 -91 91
-86 77 66 -12 124 -35 249 -80 429 -16 63 -34 144 -40 179 -15 82 -38 128 -88
173 -59 53 -201 103 -218 77z m202 -81 c48 -42 73 -87 85 -154 6 -33 28 -131
49 -219 52 -215 67 -302 75 -420 l6 -100 -70 75 c-75 80 -108 128 -233 340
-44 74 -97 158 -118 185 -76 98 -81 168 -21 293 l40 81 77 -26 c42 -14 91 -39
110 -55z"/>
<path d="M4075 5369 c-235 -127 -286 -150 -364 -160 -39 -4 -84 -15 -100 -23
-15 -8 -69 -64 -118 -123 -49 -59 -120 -141 -158 -182 -79 -86 -240 -329 -296
-445 -43 -88 -69 -192 -69 -273 0 -60 36 -350 50 -403 5 -19 16 -88 25 -154
19 -146 51 -240 110 -327 98 -143 236 -212 483 -239 56 -6 153 -20 215 -31 61
-11 182 -23 268 -26 131 -5 164 -3 207 11 60 20 393 209 466 265 91 69 385
330 397 352 6 12 15 54 20 93 8 63 23 98 126 303 77 151 114 236 108 242 -6 6
-32 -1 -72 -20 -34 -16 -94 -34 -132 -41 -107 -18 -151 -5 -342 103 -293 165
-383 235 -451 354 -23 38 -60 97 -83 130 -65 93 -151 245 -169 298 -26 76 -20
134 23 256 22 60 37 112 33 115 -11 12 -30 4 -177 -75z m129 -35 c-54 -144
-53 -209 3 -324 23 -47 78 -141 124 -210 45 -69 95 -149 111 -177 59 -105 158
-180 454 -347 186 -105 226 -118 330 -106 49 6 108 26 201 67 7 3 -40 -100
-106 -228 -102 -203 -119 -242 -123 -295 -3 -33 -13 -75 -22 -92 -27 -53 -387
-356 -506 -426 -187 -111 -306 -174 -361 -190 -85 -26 -232 -18 -489 24 -63
10 -160 24 -214 30 -248 29 -389 116 -477 294 -38 79 -68 189 -69 252 0 18 -9
74 -19 125 -28 139 -51 329 -51 428 0 107 18 182 70 286 56 115 219 356 292
434 35 36 102 114 150 172 95 116 121 133 210 143 77 8 120 27 338 144 102 55
186 99 188 98 1 -2 -14 -47 -34 -102z"/>
<path d="M4291 4405 c-16 -28 -27 -35 -50 -35 -45 0 -80 -17 -93 -45 -14 -31
-17 -31 -91 2 l-60 27 -41 -24 c-30 -17 -65 -25 -133 -31 -153 -13 -161 -26
-144 -233 12 -145 10 -170 -14 -180 -8 -3 -26 -27 -39 -55 -20 -38 -32 -51
-56 -56 -17 -4 -38 -18 -47 -31 -16 -26 -13 -42 19 -86 10 -14 8 -22 -12 -44
-14 -15 -39 -32 -56 -40 -46 -19 -58 -38 -43 -66 27 -53 84 -93 114 -82 9 4
19 19 22 34 3 16 21 43 39 61 29 28 37 32 52 21 59 -42 91 -35 116 28 12 30
25 43 53 55 21 8 48 27 60 42 l21 26 109 -13 c237 -27 281 -3 282 154 1 43 8
73 27 110 l26 52 -26 62 c-32 76 -32 78 -1 86 29 7 45 40 45 91 0 27 6 37 35
55 48 30 47 64 -2 113 -49 49 -83 50 -112 2z m100 -14 c47 -47 49 -65 9 -86
-35 -18 -50 -49 -50 -101 0 -30 -4 -37 -29 -45 -40 -14 -42 -27 -15 -89 29
-68 29 -84 4 -125 -14 -23 -23 -62 -29 -124 -9 -102 -23 -127 -75 -137 -29 -5
-204 9 -268 22 -22 4 -34 -1 -55 -24 -16 -17 -45 -37 -66 -46 -29 -12 -42 -25
-57 -61 -22 -51 -36 -55 -85 -25 l-33 20 -33 -27 c-47 -38 -58 -54 -59 -80 0
-17 -6 -23 -21 -23 -25 0 -89 61 -89 84 0 8 17 24 39 35 21 11 50 34 65 52
l26 31 -20 33 c-30 49 -26 63 25 85 35 15 49 28 66 65 12 25 30 50 41 56 19
10 19 18 13 183 l-8 173 26 20 c19 15 47 21 112 26 61 4 97 12 122 27 43 25
64 25 113 0 56 -28 86 -26 102 8 11 22 21 28 62 33 41 4 53 11 78 42 17 20 35
37 40 37 6 0 28 -17 49 -39z"/>
<path d="M4185 4239 c-25 -17 -41 -19 -96 -15 -81 6 -297 -26 -310 -45 -5 -8
-6 -48 -2 -89 3 -41 7 -112 7 -158 1 -82 0 -84 -31 -110 -46 -40 -93 -142 -64
-142 25 0 109 47 138 78 l33 35 113 -7 c61 -5 129 -9 150 -11 59 -4 72 15 88
125 7 52 12 130 11 172 -3 68 0 82 23 122 15 25 24 50 20 56 -10 16 -47 11
-80 -11z m65 2 c0 -5 -12 -29 -26 -54 -23 -41 -25 -53 -19 -114 7 -73 -17
-259 -35 -277 -7 -7 -53 -6 -145 2 -148 14 -190 6 -217 -38 -13 -21 -97 -65
-106 -55 -10 10 25 72 62 109 l39 38 -7 164 c-4 90 -3 164 1 164 4 0 53 7 108
16 62 9 127 13 170 9 62 -5 75 -3 115 19 49 27 60 31 60 17z"/>
<path d="M8547 5444 c-3 -4 5 -28 19 -55 61 -122 67 -253 17 -361 -39 -83
-258 -442 -296 -485 -51 -58 -301 -215 -522 -328 -52 -26 -69 -30 -140 -29
-69 1 -92 6 -167 39 -48 20 -95 35 -103 31 -18 -7 -13 -18 116 -257 91 -169
107 -209 119 -302 4 -37 15 -79 24 -92 9 -13 69 -68 133 -121 65 -54 145 -122
178 -153 78 -71 335 -240 450 -296 101 -48 161 -65 232 -65 70 0 362 36 483
60 58 11 120 20 139 20 53 0 150 28 230 68 143 70 236 194 281 377 22 88 75
475 85 625 12 165 -8 221 -191 526 -68 113 -120 181 -255 338 -94 108 -183
203 -199 211 -16 8 -47 15 -70 15 -65 0 -148 33 -348 140 -183 98 -202 106
-215 94z m329 -169 c93 -48 139 -66 195 -75 41 -6 84 -14 96 -16 14 -3 90 -82
199 -209 151 -174 191 -227 270 -361 51 -86 110 -190 131 -232 l38 -75 -1
-151 c0 -113 -9 -208 -32 -376 -38 -266 -53 -331 -98 -427 -76 -160 -241 -266
-449 -288 -33 -4 -107 -15 -165 -26 -298 -53 -490 -63 -590 -30 -116 39 -421
230 -542 339 -36 32 -118 103 -181 155 -63 53 -119 102 -123 108 -4 7 -13 50
-20 96 -13 91 -35 142 -174 401 -38 72 -66 132 -61 132 5 0 45 -15 88 -32 69
-29 89 -33 173 -33 l95 0 140 77 c187 102 347 203 406 257 49 44 202 282 306
477 l48 89 0 105 c0 109 2 101 -62 249 -4 8 38 -9 93 -39 54 -29 154 -81 220
-115z"/>
<path d="M8402 4415 c-40 -33 -57 -80 -36 -98 53 -42 64 -58 64 -91 0 -48 9
-66 37 -77 29 -11 28 -23 -5 -106 l-21 -51 21 -28 c17 -20 25 -52 33 -131 11
-92 16 -108 39 -131 26 -26 29 -27 129 -23 223 10 225 10 293 -37 42 -28 64
-51 69 -70 4 -15 11 -33 17 -39 15 -18 55 -16 89 4 28 17 29 17 59 -12 16 -16
33 -38 36 -49 10 -33 34 -55 52 -49 24 9 72 54 87 83 17 32 3 60 -29 60 -12 0
-37 15 -56 35 l-34 35 23 40 c21 38 22 42 7 65 -9 14 -28 28 -41 31 -15 4 -39
26 -57 53 -17 25 -40 56 -51 68 -18 20 -19 28 -8 117 17 141 14 205 -9 243
-21 34 -30 37 -155 48 -44 4 -81 14 -103 27 -36 22 -58 21 -136 -9 -40 -15
-50 -16 -54 -4 -10 29 -43 51 -76 51 -48 0 -65 8 -82 41 -19 37 -61 39 -102 4z
m96 -19 c17 -30 26 -34 75 -40 45 -6 56 -11 66 -32 16 -37 32 -38 106 -9 l67
27 31 -23 c26 -19 49 -24 122 -29 97 -7 130 -18 140 -50 10 -30 8 -164 -2
-249 -9 -68 -8 -76 12 -100 11 -14 34 -46 50 -70 17 -25 44 -50 63 -58 42 -17
50 -39 29 -75 -9 -17 -17 -38 -17 -48 0 -23 74 -90 100 -90 12 0 20 -7 20 -16
0 -18 -72 -94 -89 -94 -6 0 -18 15 -27 33 -18 35 -73 97 -86 97 -5 0 -22 -9
-37 -21 -38 -28 -66 -18 -81 26 -9 26 -29 46 -82 81 -79 53 -73 52 -254 40
-137 -10 -157 -4 -180 49 -8 19 -14 65 -14 103 0 57 -4 76 -25 106 -14 20 -25
40 -25 44 0 4 12 36 27 71 l27 64 -22 17 c-12 10 -27 20 -33 22 -6 2 -14 28
-17 58 -6 47 -11 57 -39 75 -41 26 -41 49 1 91 43 43 68 43 94 0z"/>
<path d="M8537 4263 c-14 -13 -7 -40 19 -74 24 -31 25 -39 20 -103 -6 -67 17
-268 34 -295 9 -15 15 -15 187 -6 l143 8 32 -36 c34 -36 133 -83 143 -68 10
17 -36 106 -72 139 l-36 32 7 133 c3 72 9 141 11 152 3 11 1 26 -4 34 -13 20
-182 45 -287 43 -82 -2 -94 0 -128 23 -37 25 -57 31 -69 18z m59 -28 c45 -31
94 -40 134 -26 23 7 50 6 108 -4 42 -8 99 -17 126 -20 l48 -7 -8 -101 c-5 -56
-9 -131 -9 -166 0 -59 2 -65 31 -90 26 -21 74 -97 74 -115 0 -16 -95 34 -116
61 -32 42 -61 47 -214 33 -91 -8 -135 -8 -144 -1 -16 13 -38 196 -34 287 3 63
0 75 -25 112 -15 24 -25 47 -22 52 8 14 9 13 51 -15z"/>
<path d="M11469 5427 c-124 -46 -179 -123 -179 -246 0 -69 25 -126 73 -168 33
-29 117 -63 156 -63 68 0 156 61 192 132 43 84 35 162 -27 253 -59 88 -137
121 -215 92z m120 -21 c15 -8 43 -32 63 -54 99 -110 88 -260 -27 -347 -88 -68
-247 -26 -302 78 -25 48 -22 161 5 214 49 94 181 150 261 109z"/>
<path d="M3130 4940 c-77 -47 -296 -236 -387 -334 -94 -102 -125 -174 -163
-380 -47 -256 -47 -260 -12 -437 17 -85 38 -227 46 -314 23 -249 44 -297 188
-425 51 -46 146 -140 211 -209 171 -182 199 -195 492 -231 94 -11 220 -30 280
-42 146 -28 276 -29 375 -1 41 12 109 26 150 32 88 14 195 61 261 117 25 21
79 77 120 124 40 47 100 114 134 150 53 56 155 203 155 223 0 16 -25 4 -68
-32 -26 -22 -99 -67 -162 -101 -63 -34 -147 -86 -186 -115 -137 -103 -193
-120 -346 -105 -142 15 -600 77 -694 95 -74 14 -260 78 -334 116 -114 57 -213
261 -260 534 -31 183 -82 666 -77 727 7 74 42 149 105 223 29 34 81 117 119
190 38 75 85 149 110 176 24 25 43 49 43 53 0 16 -40 2 -100 -34z m27 -29
c-20 -22 -55 -79 -78 -128 -51 -106 -99 -183 -149 -241 -49 -55 -77 -116 -89
-189 -16 -104 59 -732 109 -902 87 -301 140 -365 368 -449 160 -58 211 -69
572 -117 446 -60 505 -58 615 20 113 80 214 144 275 175 36 18 89 50 119 73
l55 41 -24 -40 c-44 -73 -64 -99 -150 -193 -269 -298 -304 -321 -540 -360 -36
-6 -90 -18 -120 -26 -66 -20 -225 -15 -335 9 -38 8 -128 22 -200 31 -374 45
-394 53 -545 220 -58 65 -149 156 -204 203 -54 48 -111 105 -126 128 -41 58
-67 146 -75 244 -11 149 -26 262 -51 378 -29 139 -30 214 -3 357 11 61 27 143
34 182 22 117 66 195 170 299 157 158 361 324 398 324 5 0 -7 -18 -26 -39z"/>
<path d="M9577 4974 c-3 -4 13 -29 37 -56 24 -27 65 -91 91 -141 49 -94 102
-176 163 -257 39 -51 66 -108 76 -161 9 -52 -29 -393 -85 -759 -22 -141 -96
-369 -142 -438 -27 -40 -85 -78 -197 -131 -154 -72 -294 -100 -745 -151 -352
-39 -397 -32 -530 80 -33 28 -117 80 -187 116 -71 37 -150 86 -177 110 -27 24
-52 44 -55 44 -36 0 98 -189 253 -356 176 -192 262 -247 428 -275 37 -6 102
-19 143 -29 129 -32 184 -34 295 -10 172 36 254 49 389 60 239 20 314 56 441
215 46 57 117 129 169 172 188 154 209 199 252 542 14 113 32 240 40 281 19
103 18 212 -5 317 -11 48 -24 121 -29 161 -6 40 -23 99 -40 135 -35 74 -109
175 -154 209 -18 14 -90 77 -160 139 -142 128 -252 202 -271 183z m135 -86
c69 -54 269 -230 322 -283 84 -84 156 -232 156 -320 0 -18 11 -82 25 -143 30
-134 31 -162 5 -311 -11 -64 -31 -204 -45 -312 -14 -108 -33 -220 -42 -250
-28 -85 -82 -155 -184 -238 -51 -42 -117 -105 -146 -141 -177 -213 -215 -232
-518 -259 -66 -6 -185 -24 -265 -41 -169 -35 -235 -37 -345 -11 -44 11 -120
27 -170 36 -105 19 -193 58 -267 119 -102 83 -376 402 -378 439 0 5 14 -3 31
-17 17 -14 88 -55 157 -91 70 -35 154 -87 187 -115 135 -115 193 -124 535 -86
491 55 606 80 795 176 156 78 163 87 236 280 55 148 72 234 129 682 47 373 44
395 -78 565 -39 54 -95 145 -126 201 -30 57 -72 124 -92 149 l-37 45 30 -15
c16 -9 55 -35 85 -59z"/>
<path d="M2550 4742 c-186 -81 -366 -174 -475 -247 -76 -51 -363 -292 -468
-394 -38 -36 -66 -82 -133 -216 -98 -198 -124 -285 -124 -419 0 -137 35 -229
117 -308 57 -55 119 -79 238 -89 299 -26 407 -54 474 -123 17 -18 95 -126 174
-241 l142 -209 195 -133 c107 -73 216 -150 241 -172 75 -65 86 -97 119 -371
20 -155 37 -258 48 -284 35 -77 151 -153 271 -177 73 -14 209 -7 293 16 79 21
338 149 393 193 45 37 337 373 442 509 44 57 81 131 183 360 77 171 125 292
120 297 -5 5 -28 -11 -55 -41 -25 -28 -69 -66 -97 -84 -29 -18 -77 -56 -105
-85 -33 -33 -82 -67 -130 -91 -88 -43 -56 -42 -438 -25 -240 10 -255 12 -378
46 -71 20 -132 38 -136 41 -5 2 -72 18 -149 34 -78 17 -159 39 -181 50 -21 11
-72 58 -113 103 -94 107 -242 255 -341 342 -50 44 -87 86 -103 117 -24 48 -74
237 -74 280 0 11 -16 67 -35 123 -38 112 -52 218 -63 486 -12 279 -10 306 26
383 19 41 54 92 90 130 32 34 73 86 91 114 18 29 55 71 82 94 27 22 49 45 49
50 0 18 -38 6 -190 -59z m106 -5 c-30 -29 -61 -69 -71 -88 -10 -19 -44 -62
-76 -96 -36 -37 -73 -90 -94 -135 l-36 -73 7 -220 c9 -318 25 -473 62 -581 17
-49 33 -107 37 -129 14 -90 49 -223 72 -272 18 -38 47 -73 106 -125 154 -138
200 -183 291 -288 50 -58 102 -115 116 -127 42 -37 110 -62 250 -92 74 -17
188 -46 253 -65 135 -40 240 -51 562 -61 l200 -6 83 40 c54 27 99 58 130 89
26 27 67 62 91 77 25 15 67 48 94 74 l49 46 -15 -35 c-139 -328 -232 -522
-280 -583 -82 -104 -363 -432 -410 -478 -61 -60 -317 -192 -426 -220 -92 -24
-255 -26 -327 -4 -67 20 -169 87 -194 127 -30 50 -37 83 -66 323 -36 309 -43
322 -273 477 -305 205 -278 180 -423 396 -145 216 -182 262 -242 297 -61 35
-101 43 -333 70 -241 28 -265 36 -335 114 -104 115 -124 303 -55 506 24 74
140 308 173 352 28 37 364 332 466 408 89 67 326 194 507 271 80 34 149 63
153 63 4 1 -17 -23 -46 -52z"/>
<path d="M1869 3866 c-106 -38 -161 -99 -167 -187 -13 -172 140 -299 310 -259
62 15 118 67 136 126 36 122 24 195 -47 265 -65 66 -148 85 -232 55z m168 -23
c47 -21 101 -86 109 -128 11 -59 -2 -150 -28 -197 -60 -109 -233 -121 -334
-23 -44 42 -74 116 -74 179 1 73 81 156 177 182 53 14 100 10 150 -13z"/>
<path d="M3567 2156 c-94 -34 -148 -97 -155 -181 -5 -62 16 -140 51 -187 32
-43 112 -78 193 -84 64 -5 72 -4 115 24 86 56 126 188 90 296 -15 44 -72 111
-112 132 -35 18 -132 18 -182 0z m202 -34 c20 -15 49 -53 64 -83 24 -45 28
-63 25 -114 -5 -77 -39 -148 -86 -180 -29 -20 -49 -25 -97 -25 -146 0 -223 62
-245 197 -12 71 0 115 44 161 79 84 218 105 295 44z"/>
<path d="M10080 4790 c0 -6 19 -27 41 -47 23 -21 55 -61 71 -90 16 -29 54 -76
84 -105 36 -35 68 -79 92 -127 43 -87 43 -80 24 -466 -12 -250 -26 -344 -68
-449 -13 -34 -35 -118 -49 -189 -13 -70 -34 -146 -46 -170 -24 -46 -522 -548
-568 -572 -32 -16 -203 -60 -276 -71 -27 -4 -72 -17 -100 -29 -96 -42 -248
-63 -520 -72 -313 -10 -304 -11 -362 21 -29 16 -76 50 -105 76 -29 26 -92 74
-139 108 -48 34 -100 78 -116 98 -38 48 -61 39 -34 -14 10 -20 65 -143 121
-272 56 -129 116 -256 134 -282 45 -67 397 -488 444 -530 98 -88 226 -159 390
-216 102 -35 114 -37 237 -37 127 0 131 1 203 34 92 43 156 110 177 185 7 28
21 123 30 211 20 200 31 258 61 317 36 70 70 99 299 255 155 104 216 152 234
180 68 109 260 382 290 411 56 57 98 68 356 101 205 27 248 35 295 59 180 90
226 408 97 676 -24 50 -61 126 -81 170 -46 95 -91 141 -345 356 -224 190 -276
226 -416 295 -114 56 -433 195 -447 195 -4 0 -8 -5 -8 -10z m209 -90 c338
-146 387 -177 684 -428 201 -169 265 -235 299 -303 143 -297 144 -297 158
-432 18 -160 -21 -297 -107 -383 -45 -45 -100 -60 -338 -89 -115 -14 -226 -30
-246 -35 -92 -25 -147 -86 -343 -381 l-97 -146 -220 -147 c-242 -163 -274
-193 -308 -303 -11 -34 -27 -133 -36 -220 -27 -268 -38 -306 -106 -367 -121
-110 -292 -132 -501 -66 -168 53 -282 112 -393 204 -56 47 -431 493 -470 560
-14 24 -70 145 -124 268 -54 123 -104 235 -111 248 -11 21 -7 19 27 -11 22
-20 66 -54 99 -77 32 -22 88 -65 124 -97 36 -31 93 -70 128 -87 73 -36 64 -36
377 -20 264 14 373 27 459 58 78 28 98 33 236 64 205 46 168 20 473 323 151
150 281 286 290 304 10 18 30 96 47 175 16 79 40 170 54 203 38 95 57 231 68
495 6 135 10 265 10 289 -2 66 -60 180 -130 254 -32 34 -69 80 -83 102 -13 22
-39 57 -57 78 -19 20 -32 37 -29 37 3 0 78 -31 166 -70z"/>
<path d="M10790 3864 c-101 -44 -144 -113 -144 -234 0 -79 9 -106 53 -153 51
-56 114 -73 206 -56 80 14 129 47 160 109 27 53 42 150 31 194 -10 41 -75 107
-131 132 -58 27 -124 30 -175 8z m186 -29 c46 -27 91 -75 106 -114 13 -36 -7
-146 -37 -196 -31 -54 -90 -86 -170 -92 -80 -7 -125 8 -169 57 -39 44 -52 98
-43 186 7 68 31 111 82 146 78 53 155 57 231 13z"/>
<path d="M9065 2151 c-50 -23 -109 -84 -130 -133 -31 -76 -11 -175 52 -247 52
-61 84 -75 163 -68 110 9 171 45 205 121 52 114 41 214 -29 281 -67 65 -178
84 -261 46z m206 -22 c79 -40 107 -102 95 -212 -12 -113 -68 -172 -189 -197
-71 -14 -103 -8 -151 31 -173 143 -65 427 154 403 30 -3 71 -14 91 -25z"/>
<path d="M5536 4201 c-4 -5 -22 -63 -42 -128 -79 -265 -105 -332 -160 -415
-53 -80 -54 -84 -54 -153 0 -38 7 -117 15 -175 8 -58 15 -141 15 -186 0 -90
56 -390 91 -489 56 -159 154 -278 326 -396 129 -87 228 -161 303 -224 65 -54
193 -119 268 -134 159 -33 288 0 459 118 119 81 441 339 509 408 77 77 114
160 163 369 51 217 67 320 81 512 18 264 18 257 -45 352 -49 73 -64 110 -126
304 -39 122 -77 227 -85 235 -14 15 -10 22 -67 -110 -14 -31 -42 -75 -63 -98
-72 -80 -145 -111 -414 -171 -96 -22 -205 -49 -242 -61 -63 -20 -69 -20 -120
-5 -29 8 -91 22 -138 30 -104 18 -414 111 -455 136 -69 43 -139 136 -170 224
-20 58 -37 77 -49 57z m24 -28 c0 -64 114 -221 194 -268 45 -26 402 -135 445
-135 14 0 60 -9 101 -21 83 -23 118 -21 225 9 39 11 124 32 190 47 165 37 282
73 331 100 79 46 129 116 191 265 8 18 12 21 16 10 3 -8 37 -113 75 -232 62
-192 76 -225 123 -293 l54 -77 -2 -102 c-4 -148 -21 -349 -39 -446 -28 -153
-94 -413 -118 -465 -46 -97 -109 -159 -389 -378 -302 -236 -388 -280 -553
-280 -89 0 -187 26 -264 70 -25 14 -88 60 -140 102 -53 42 -151 114 -220 161
-208 142 -298 242 -356 397 -40 106 -96 391 -100 513 -2 58 -9 143 -15 190 -7
47 -12 119 -13 161 -1 72 1 80 32 120 56 75 95 167 157 372 54 179 75 228 75
180z"/>
<path d="M6338 3564 c-31 -16 -32 -17 -19 -61 8 -28 6 -37 -19 -69 -36 -45
-44 -68 -31 -93 12 -22 8 -27 -59 -60 -62 -32 -80 -50 -80 -81 0 -20 -18 -48
-64 -99 -70 -78 -83 -108 -64 -149 7 -14 63 -69 123 -121 108 -94 110 -96 116
-146 3 -27 11 -62 19 -78 12 -24 11 -32 -3 -63 -9 -19 -17 -41 -17 -48 0 -20
31 -43 68 -51 33 -7 34 -8 29 -53 -2 -26 -10 -62 -18 -80 -13 -31 -12 -35 5
-48 23 -16 118 -19 147 -4 23 13 25 43 4 60 -19 15 -20 103 -2 117 6 6 24 13
39 17 42 10 51 36 31 89 -16 43 -16 48 1 86 11 24 16 50 12 64 -7 31 2 41 121
141 107 89 123 109 123 152 0 32 -16 58 -81 131 -21 22 -43 59 -49 82 -13 49
-30 67 -78 82 -57 17 -75 33 -66 61 11 32 7 46 -28 89 -29 36 -29 39 -17 74
13 35 12 38 -10 56 -28 23 -94 25 -133 3z m120 -10 c10 -3 12 -16 7 -52 -6
-44 -4 -52 22 -82 22 -26 28 -44 28 -79 l0 -46 63 -24 c59 -23 63 -27 73 -68
7 -26 30 -63 60 -98 63 -72 81 -108 73 -141 -4 -16 -46 -59 -113 -116 -129
-110 -131 -112 -131 -159 0 -20 -7 -53 -15 -73 -14 -33 -14 -40 1 -71 22 -47
15 -68 -26 -81 -55 -18 -80 -94 -45 -140 26 -34 19 -51 -24 -58 -43 -7 -98 1
-107 16 -3 5 2 21 11 35 18 27 25 109 11 131 -4 7 -17 12 -30 12 -39 0 -60 23
-52 56 17 71 18 86 2 119 -10 20 -14 44 -11 55 11 35 -3 55 -100 135 -173 141
-177 156 -81 264 42 47 67 84 73 109 7 33 16 41 76 72 l67 35 -6 40 c-5 35 -1
46 26 80 28 35 31 45 25 81 -6 39 -4 43 22 52 25 9 66 7 101 -4z"/>
<path d="M6372 3343 c-6 -15 -13 -40 -16 -55 -4 -16 -27 -45 -56 -69 -61 -51
-180 -208 -180 -236 0 -14 36 -51 103 -108 56 -48 108 -96 115 -106 7 -10 16
-49 21 -86 11 -80 27 -126 42 -121 20 7 48 91 48 147 1 60 4 63 159 194 47 40
72 69 72 82 0 28 -107 168 -176 230 -45 41 -58 59 -68 100 -16 60 -46 74 -64
28z m42 1 c3 -9 6 -22 6 -31 0 -31 33 -82 68 -106 34 -22 182 -204 182 -223 0
-5 -48 -49 -106 -99 -115 -97 -139 -131 -130 -178 6 -32 -19 -117 -35 -117 -5
0 -9 1 -9 3 0 27 -32 171 -41 186 -7 11 -59 59 -116 107 -57 48 -103 92 -103
97 0 22 142 198 179 223 38 25 71 75 71 107 0 22 11 47 20 47 4 0 11 -7 14
-16z"/>
<path d="M5139 3113 c-22 -59 -38 -154 -48 -294 -15 -195 -14 -290 4 -371 19
-91 43 -142 107 -229 30 -41 69 -99 86 -130 43 -77 101 -140 169 -184 174
-114 231 -155 330 -237 215 -180 196 -175 628 -174 l340 2 65 30 c39 19 116
73 194 138 119 100 176 141 313 225 70 43 150 132 192 211 18 36 44 76 57 90
78 86 136 235 137 358 2 144 -21 455 -39 517 -28 98 -43 101 -50 8 -3 -32 -23
-116 -44 -188 -22 -71 -44 -170 -51 -220 -14 -112 -39 -180 -85 -233 -32 -38
-249 -213 -527 -425 -116 -89 -396 -233 -471 -243 -50 -7 -137 16 -276 73
-149 61 -240 123 -585 399 -283 226 -290 237 -315 439 -6 49 -29 146 -52 215
-22 69 -43 153 -46 188 -5 67 -16 78 -33 35z m65 -231 c19 -56 40 -137 46
-180 35 -241 39 -247 284 -445 395 -319 536 -409 744 -477 119 -38 185 -39
254 -5 28 14 84 39 124 56 40 17 115 58 166 92 118 78 586 445 627 492 43 50
68 101 80 171 35 188 43 226 67 299 15 44 32 111 38 150 l12 70 17 -67 c9 -37
17 -91 17 -120 0 -29 5 -126 12 -216 18 -244 -5 -341 -116 -487 -30 -38 -66
-95 -81 -125 -36 -72 -132 -165 -225 -220 -93 -54 -163 -106 -257 -187 -192
-168 -269 -195 -485 -172 -97 10 -147 10 -257 -1 -214 -20 -272 1 -476 170
-63 52 -179 138 -257 190 -153 102 -183 133 -271 277 -26 43 -63 99 -83 125
-62 82 -78 143 -82 312 -4 149 11 384 27 441 5 17 13 44 17 60 7 26 8 22 15
-35 4 -36 23 -111 43 -168z"/>
<path d="M1484 2996 c-8 -21 141 -538 176 -611 16 -34 66 -117 111 -185 184
-278 493 -517 764 -590 44 -12 159 -46 256 -76 97 -30 183 -54 192 -54 26 0
30 19 14 63 -9 23 -23 108 -32 189 -9 81 -22 167 -31 190 -31 88 -116 195
-212 268 -80 60 -102 64 -102 18 -1 -102 -43 -159 -144 -197 -79 -29 -193 -29
-255 1 -62 29 -182 154 -216 223 -31 63 -31 112 0 217 31 109 81 155 180 165
32 3 55 11 55 18 0 27 -120 174 -180 219 -117 87 -131 93 -280 106 -74 7 -168
21 -209 31 -89 23 -80 22 -87 5z m85 -20 c31 -8 123 -22 206 -31 164 -17 165
-17 288 -114 54 -41 157 -167 157 -191 0 -5 -18 -10 -40 -10 -93 0 -154 -57
-189 -173 -28 -94 -28 -177 0 -235 34 -68 164 -196 233 -228 53 -24 67 -26
137 -21 165 11 269 91 269 207 0 28 4 40 14 40 22 0 127 -84 172 -137 96 -114
117 -170 134 -353 6 -63 18 -141 27 -173 9 -31 14 -59 12 -61 -5 -5 -436 122
-546 160 -146 52 -380 216 -515 363 -73 79 -197 259 -247 358 -17 34 -57 153
-90 265 -91 309 -101 348 -89 348 5 0 36 -7 67 -14z"/>
<path d="M11240 2989 c-36 -9 -132 -23 -213 -32 -136 -14 -152 -18 -204 -48
-100 -60 -276 -251 -258 -280 3 -4 29 -10 58 -14 76 -9 103 -22 129 -63 43
-66 59 -121 60 -203 0 -103 -23 -151 -119 -246 -115 -113 -179 -137 -291 -108
-93 23 -168 60 -187 89 -9 14 -22 49 -29 78 -15 70 -36 73 -115 18 -57 -40
-110 -100 -180 -203 -30 -44 -33 -58 -51 -215 -11 -92 -26 -190 -34 -219 -15
-57 -13 -63 19 -63 25 0 477 130 553 159 53 20 229 126 322 195 133 98 327
331 426 511 51 93 210 634 191 651 -9 8 -30 6 -77 -7z m65 -26 c-25 -104 -152
-527 -170 -569 -60 -135 -284 -419 -411 -522 -73 -59 -284 -194 -338 -216 -52
-22 -567 -168 -573 -163 -2 3 3 32 12 66 9 34 23 128 31 208 9 81 20 156 26
167 23 43 100 146 140 186 47 46 123 94 136 86 5 -3 12 -28 16 -55 8 -59 42
-105 95 -127 139 -58 235 -69 307 -33 69 33 199 165 230 233 24 53 26 66 21
144 -4 70 -11 96 -38 151 -28 55 -42 70 -79 89 -25 12 -63 22 -87 22 -24 0
-43 4 -43 9 0 21 101 140 164 193 102 85 127 95 310 114 88 9 175 22 195 29
56 21 64 19 56 -12z"/>
<path d="M7854 2618 c5 -43 2 -87 -8 -138 -9 -41 -16 -105 -16 -141 0 -78 -28
-177 -66 -234 -14 -22 -53 -62 -86 -90 -33 -27 -79 -70 -102 -94 -56 -60 -279
-247 -343 -287 -28 -19 -74 -43 -102 -53 -27 -11 -96 -52 -153 -90 -129 -87
-193 -114 -273 -112 -33 0 -202 2 -375 4 -360 3 -331 -3 -501 104 -52 33 -141
86 -199 117 -122 68 -189 120 -360 283 -69 65 -142 129 -162 141 -45 28 -94
100 -113 167 -8 27 -17 91 -20 140 -4 50 -13 124 -21 165 -9 43 -13 93 -9 118
5 33 3 42 -8 42 -8 0 -17 -6 -20 -12 -3 -7 -44 -109 -91 -226 -48 -117 -95
-246 -107 -285 -21 -76 -78 -622 -79 -753 0 -60 8 -96 55 -232 74 -220 121
-310 204 -393 89 -88 176 -131 283 -137 70 -4 83 -2 140 26 35 16 86 49 114
73 108 94 281 219 323 234 67 23 144 18 373 -25 117 -22 243 -40 279 -40 38 0
157 18 271 40 243 48 314 50 384 15 27 -14 118 -79 202 -145 179 -140 222
-167 288 -179 107 -20 239 33 345 138 74 74 130 168 172 286 15 44 40 109 54
145 19 49 27 89 30 160 5 100 -30 586 -48 680 -24 120 -223 640 -248 648 -11
4 -12 -8 -7 -60z m99 -183 c78 -200 119 -313 136 -380 18 -68 63 -664 55 -730
-3 -33 -24 -106 -45 -163 -22 -56 -39 -108 -39 -116 0 -26 -79 -171 -125 -229
-87 -110 -226 -187 -336 -187 -69 0 -149 46 -329 186 -251 196 -252 197 -565
133 -272 -55 -314 -55 -595 -1 -119 23 -231 42 -251 42 -93 0 -196 -61 -421
-247 -102 -85 -154 -108 -243 -107 -61 0 -82 5 -149 37 -146 69 -228 177 -314
412 -79 218 -85 251 -73 394 35 402 53 564 72 636 17 69 164 452 190 495 5 10
8 -1 9 -35 0 -28 5 -66 11 -85 6 -19 14 -87 19 -150 12 -174 52 -265 142 -325
23 -17 106 -89 183 -162 165 -157 218 -197 334 -259 47 -26 136 -78 198 -116
61 -38 136 -79 165 -90 57 -22 54 -22 408 -22 118 1 256 1 305 0 109 0 152 17
307 122 57 38 120 75 141 82 75 24 254 160 433 329 49 47 116 109 147 138 36
32 65 70 78 100 29 67 51 180 44 223 -3 20 1 61 10 95 8 32 15 86 15 119 0 33
2 57 4 55 3 -3 38 -90 79 -194z"/>
<path d="M5142 1522 c-177 -63 -246 -246 -139 -369 36 -41 111 -79 173 -89 73
-11 176 46 225 124 50 79 35 179 -41 265 -71 82 -129 100 -218 69z m137 -17
c68 -34 141 -153 141 -227 0 -61 -79 -155 -156 -184 -86 -33 -201 3 -261 82
-21 29 -28 50 -31 99 -6 86 22 138 110 204 51 39 149 52 197 26z"/>
<path d="M7547 1526 c-75 -28 -148 -104 -175 -185 -17 -50 -15 -71 14 -129 51
-102 176 -166 279 -143 62 14 126 65 156 124 26 49 28 136 7 188 -48 113 -181
182 -281 145z m136 -19 c78 -33 147 -129 147 -207 0 -151 -141 -256 -281 -208
-56 19 -117 66 -144 112 -35 60 -33 116 5 183 63 109 178 159 273 120z"/>
<path d="M2103 2518 c-51 -57 -37 -76 114 -153 l98 -50 56 -114 c62 -126 80
-146 113 -129 96 49 61 170 -67 228 -74 33 -94 53 -121 122 -39 97 -144 149
-193 96z m95 -7 c49 -25 68 -48 87 -101 21 -59 49 -88 115 -117 30 -14 63 -32
74 -41 19 -18 56 -84 56 -101 0 -18 -53 -72 -68 -69 -9 2 -43 57 -76 123 l-61
120 -65 34 c-108 55 -170 95 -170 107 0 18 40 64 56 64 8 0 31 -9 52 -19z"/>
<path d="M10588 2520 c-45 -24 -74 -61 -90 -112 -16 -54 -56 -94 -106 -107
-107 -29 -168 -146 -107 -206 13 -14 33 -25 44 -25 24 0 71 64 111 153 34 76
52 92 160 146 150 76 163 94 104 149 -30 27 -67 28 -116 2z m92 -5 c37 -19 49
-54 24 -72 -11 -8 -59 -34 -109 -59 -113 -57 -130 -71 -160 -139 -13 -30 -40
-80 -60 -110 -37 -54 -37 -55 -65 -40 -74 38 -25 155 80 190 70 23 96 48 120
113 25 66 42 87 90 113 43 22 44 22 80 4z"/>
<path d="M2060 2355 c-14 -17 -4 -100 16 -116 18 -15 53 -2 66 26 9 19 7 29
-11 51 -35 44 -57 56 -71 39z m45 -32 c29 -33 31 -46 8 -68 -16 -16 -17 -16
-30 1 -12 16 -19 94 -8 94 2 0 16 -12 30 -27z"/>
<path d="M10676 2320 c-35 -42 -33 -56 11 -79 32 -16 65 20 61 69 -4 48 -36
52 -72 10z m59 1 c8 -25 -15 -73 -33 -69 -8 2 -20 11 -26 20 -8 13 -5 22 14
43 28 30 37 31 45 6z"/>
<path d="M2252 2138 c-17 -17 -15 -54 4 -73 19 -19 85 -17 92 3 4 13 -59 82
-75 82 -5 0 -14 -5 -21 -12z m58 -33 c29 -31 17 -51 -22 -36 -31 12 -42 27
-34 46 8 22 30 18 56 -10z"/>
<path d="M10475 2115 c-44 -41 -42 -59 7 -63 26 -2 43 3 64 21 27 24 28 25 11
51 -23 34 -38 33 -82 -9z m72 -1 c11 -29 -48 -63 -77 -44 -13 9 -11 14 13 35
32 29 55 32 64 9z"/>
<path d="M5795 816 c-107 -15 -125 -24 -230 -112 -44 -37 -117 -92 -162 -121
-46 -30 -83 -58 -83 -63 0 -5 28 -24 63 -43 34 -19 149 -82 256 -141 219 -121
280 -144 476 -182 330 -62 675 -18 940 121 177 92 388 214 402 232 16 20 10
29 -35 52 -20 11 -84 59 -142 107 -155 129 -165 134 -277 151 -137 21 -323 4
-323 -30 0 -7 13 -28 28 -47 62 -75 64 -98 24 -197 -39 -96 -85 -159 -135
-185 -59 -30 -279 -39 -355 -14 -58 20 -117 78 -155 153 -60 119 -59 165 4
237 23 26 39 52 36 59 -3 9 -40 18 -100 25 -111 14 -113 14 -232 -2z m303 -22
c22 -6 21 -8 -18 -50 -45 -49 -55 -77 -47 -139 11 -98 108 -237 189 -270 57
-23 205 -31 296 -15 103 17 144 51 201 162 31 60 46 103 49 140 4 48 1 58 -33
106 -20 30 -34 56 -32 59 24 23 223 31 322 12 81 -15 112 -33 240 -139 61 -50
127 -101 148 -112 20 -12 37 -24 37 -27 0 -19 -474 -278 -550 -302 -36 -11
-121 -32 -190 -46 -109 -24 -149 -27 -305 -27 -159 0 -196 3 -313 28 -189 39
-219 51 -482 196 -129 71 -243 132 -252 136 -10 3 -18 9 -18 13 0 3 30 25 68
48 37 23 113 80 169 127 105 86 111 89 233 110 35 6 260 -2 288 -10z"/>
<path d="M6181 697 c-63 -18 -87 -53 -75 -109 11 -52 20 -53 144 -14 171 54
151 53 227 23 37 -15 95 -34 128 -42 58 -15 60 -15 78 6 9 12 17 30 17 41 0
32 -29 78 -56 88 -44 17 -131 12 -174 -10 -49 -25 -90 -25 -138 -1 -52 26 -99
32 -151 18z m139 -27 c22 -11 59 -20 85 -20 26 0 61 8 82 20 44 24 100 26 148
6 36 -15 50 -43 43 -87 -3 -21 -8 -24 -46 -21 -23 1 -72 14 -110 28 -101 39
-133 40 -238 5 -49 -17 -106 -32 -125 -33 -32 -3 -34 -1 -37 29 -2 18 2 41 8
52 21 41 128 53 190 21z"/>
<path d="M6203 473 c-9 -22 51 -75 80 -71 24 3 44 46 34 72 -9 23 -105 23
-114 -1z m97 -23 c0 -25 -4 -30 -23 -30 -27 0 -62 33 -52 49 3 6 22 11 41 11
31 0 34 -2 34 -30z"/>
<path d="M6487 483 c-11 -11 -8 -58 5 -71 19 -19 46 -14 80 17 28 25 30 31 19
45 -13 16 -91 23 -104 9z m83 -13 c13 -9 11 -14 -13 -35 -15 -14 -32 -25 -37
-25 -14 0 -32 40 -26 56 6 16 54 19 76 4z"/>
</g>
</svg>
